<?xml version="1.0" encoding="UTF-8"?>
<svg width="616px" height="165px" viewBox="0 0 616 165" version="1.1" xmlns="http://www.w3.org/2000/svg" xmlns:xlink="http://www.w3.org/1999/xlink">
    <!-- Generator: Sketch 49.1 (51147) - http://www.bohemiancoding.com/sketch -->
    <title>title-desc-black</title>
    <desc>Created with Sketch.</desc>
    <defs></defs>
    <g id="Page-1" stroke="none" stroke-width="1" fill="none" fill-rule="evenodd">
        <g id="title-desc-black" fill="#3E3C39">
            <path d="M0.670558191,114.938961 L4.7572768,114.938961 C18.2945322,114.938961 22.6366707,111.107662 22.6366707,96.4210172 L22.6366707,23.8817619 L11.1427746,23.8817619 L11.1427746,96.4210172 C11.1427746,105.105294 10.5042248,107.276363 3.48017723,107.276363 L0.670558191,107.276363 L0.670558191,114.938961 Z M11.1427746,14.0480952 L22.6366707,14.0480952 L22.6366707,0 L11.1427746,0 L11.1427746,14.0480952 Z M60.5911561,94.2499479 C43.4780219,94.2499479 35.5600046,84.1608613 35.5600046,63.3441384 L35.5600046,53.2550519 C35.5600046,32.310619 43.350312,22.3492424 60.4634461,22.3492424 C77.7042902,22.3492424 84.9837578,32.182909 84.9837578,54.1490216 L84.9837578,59.3851298 L47.4370306,59.3851298 L47.4370306,61.1730692 C47.4370306,76.6259739 49.7358098,86.0765107 60.5911561,86.0765107 C68.3814634,86.0765107 73.1067318,81.3512423 73.1067318,71.1344458 L73.1067318,70.495896 L83.9620781,70.495896 L83.9620781,71.1344458 C83.9620781,86.4596405 75.2778011,94.2499479 60.5911561,94.2499479 Z M47.4370306,51.2116926 L47.4370306,51.9779523 L73.1067318,51.9779523 L73.1067318,51.0839826 C73.1067318,37.8021471 70.9356626,30.3949696 60.5911561,30.3949696 C49.8635197,30.3949696 47.4370306,38.4406969 47.4370306,51.2116926 Z M144.648936,92.5897185 L157.164511,92.5897185 L127.918931,38.3129869 L154.227182,0 L142.094737,0 L110.933507,45.9755843 L110.933507,0 L98.9287713,0 L98.9287713,92.5897185 L110.933507,92.5897185 L110.933507,63.0887185 L120.767174,48.6574934 L144.648936,92.5897185 Z M164.468607,92.5897185 L175.962503,92.5897185 L175.962503,55.0429913 C175.962503,40.4840562 180.432352,30.9058095 189.372049,30.9058095 C197.545486,30.9058095 198.822586,38.057567 198.822586,50.4454328 L198.822586,92.5897185 L210.316482,92.5897185 L210.316482,46.6141341 C210.316482,29.8841298 206.102053,22.3492424 193.458767,22.3492424 C184.64678,22.3492424 178.516703,27.7130606 175.962503,34.9925281 L175.962503,23.8817619 L164.468607,23.8817619 L164.468607,92.5897185 Z M246.866158,86.0765107 C257.721504,86.0765107 259.509443,76.4982639 259.509443,60.5345194 L259.509443,56.0646709 C259.509443,40.1009263 257.721504,30.3949696 246.866158,30.3949696 C236.010811,30.3949696 234.095162,40.1009263 234.095162,56.0646709 L234.095162,60.5345194 C234.095162,76.4982639 236.010811,86.0765107 246.866158,86.0765107 Z M246.866158,94.2499479 C229.880733,94.2499479 222.218136,84.4162812 222.218136,63.2164285 L222.218136,53.3827618 C222.218136,32.182909 229.880733,22.3492424 246.866158,22.3492424 C263.596162,22.3492424 271.386469,32.182909 271.386469,53.3827618 L271.386469,63.2164285 C271.386469,84.4162812 263.596162,94.2499479 246.866158,94.2499479 Z M289.290491,92.5897185 L301.678357,92.5897185 L312.150574,35.5033679 L322.62279,92.5897185 L334.882946,92.5897185 L346.249132,23.8817619 L336.160045,23.8817619 L327.986608,78.9247531 L317.514392,23.8817619 L306.659045,23.8817619 L296.314539,78.9247531 L288.141102,23.8817619 L278.052015,23.8817619 L289.290491,92.5897185 Z M356.873687,92.5897185 L368.367583,92.5897185 L368.367583,0 L356.873687,0 L356.873687,92.5897185 Z M406.322068,94.2499479 C389.208934,94.2499479 381.290917,84.1608613 381.290917,63.3441384 L381.290917,53.2550519 C381.290917,32.310619 389.081224,22.3492424 406.194358,22.3492424 C423.435202,22.3492424 430.71467,32.182909 430.71467,54.1490216 L430.71467,59.3851298 L393.167943,59.3851298 L393.167943,61.1730692 C393.167943,76.6259739 395.466722,86.0765107 406.322068,86.0765107 C414.112375,86.0765107 418.837644,81.3512423 418.837644,71.1344458 L418.837644,70.495896 L429.69299,70.495896 L429.69299,71.1344458 C429.69299,86.4596405 421.008713,94.2499479 406.322068,94.2499479 Z M393.167943,51.2116926 L393.167943,51.9779523 L418.837644,51.9779523 L418.837644,51.0839826 C418.837644,37.8021471 416.666575,30.3949696 406.322068,30.3949696 C395.594432,30.3949696 393.167943,38.4406969 393.167943,51.2116926 Z M478.885952,34.8648181 L478.885952,0 L490.379848,0 L490.379848,92.5897185 L478.885952,92.5897185 L478.885952,81.7343722 C476.587172,88.7584198 470.073965,94.2499479 461.517398,94.2499479 C447.852432,94.2499479 440.956095,83.9054414 440.956095,63.3441384 L440.956095,53.2550519 C440.956095,32.6937489 447.852432,22.3492424 461.517398,22.3492424 C470.073965,22.3492424 476.587172,27.8407705 478.885952,34.8648181 Z M479.269082,58.3634501 C479.269082,40.7394761 474.160683,30.7780995 464.837856,30.7780995 C455.38732,30.7780995 452.833121,39.5900865 452.833121,56.4478008 L452.833121,60.1513895 C452.833121,77.0091038 455.38732,85.8210908 464.837856,85.8210908 C474.160683,85.8210908 479.269082,75.8597142 479.269082,58.3634501 Z M527.853711,116.59919 C512.273096,116.59919 504.993629,108.681173 504.993629,96.4210172 L504.993629,95.9101773 L516.104395,95.9101773 L516.104395,96.4210172 C516.104395,103.700485 519.552564,108.425753 527.981421,108.425753 C537.304248,108.425753 540.880127,104.083615 540.880127,91.1849089 L540.880127,78.2862033 C538.581347,85.4379609 532.834399,90.929489 524.277832,90.929489 C510.740577,90.929489 502.69485,80.3295626 502.69485,60.2790995 L502.69485,52.1056623 C502.69485,31.5443593 510.740577,22.3492424 524.277832,22.3492424 C532.834399,22.3492424 538.581347,27.9684805 540.880127,34.9925281 L540.880127,23.8817619 L552.374023,23.8817619 L552.374023,89.0138397 C552.374023,107.020944 545.733105,116.59919 527.853711,116.59919 Z M527.440363,82.5006319 C537.27403,82.5006319 541.999298,73.0500951 541.999298,57.0863506 C541.999298,40.2286363 537.27403,30.7780995 527.440363,30.7780995 C517.862117,30.7780995 515.180208,38.6961168 515.180208,54.9152813 L515.180208,56.8309306 C515.180208,72.9223852 517.862117,82.5006319 527.440363,82.5006319 Z M590.93684,94.2499479 C573.823706,94.2499479 565.905689,84.1608613 565.905689,63.3441384 L565.905689,53.2550519 C565.905689,32.310619 573.695996,22.3492424 590.80913,22.3492424 C608.049974,22.3492424 615.329442,32.182909 615.329442,54.1490216 L615.329442,59.3851298 L577.782715,59.3851298 L577.782715,61.1730692 C577.782715,76.6259739 580.081494,86.0765107 590.93684,86.0765107 C598.727147,86.0765107 603.452416,81.3512423 603.452416,71.1344458 L603.452416,70.495896 L614.307762,70.495896 L614.307762,71.1344458 C614.307762,86.4596405 605.623485,94.2499479 590.93684,94.2499479 Z M577.782715,51.2116926 L577.782715,51.9779523 L603.452416,51.9779523 L603.452416,51.0839826 C603.452416,37.8021471 601.281347,30.3949696 590.93684,30.3949696 C580.209204,30.3949696 577.782715,38.4406969 577.782715,51.2116926 Z" id="jeKnowledge-Copy-24"></path>
            <path d="M63.6705582,153.919028 L63.6705582,114 L68.1304772,114 L83.2721776,149.183806 L83.2721776,114 L86.6308821,114 L86.6308821,153.919028 L82.170963,153.919028 L67.0292626,118.735223 L67.0292626,153.919028 L63.6705582,153.919028 Z M101.164511,154.634818 C95.6584377,154.634818 94.0066159,151.05587 94.0066159,143.897976 L94.0066159,124.296356 L97.3653203,124.296356 L97.3653203,142.961943 C97.3653203,148.688259 98.1361705,151.936842 101.990422,151.936842 C105.899733,151.936842 108.542648,147.97247 108.542648,140.704453 L108.542648,124.296356 L111.901353,124.296356 L111.901353,153.919028 L108.65277,153.919028 L108.65277,148.74332 C107.716737,151.881781 105.073822,154.634818 101.164511,154.634818 Z M119.222026,153.919028 L119.222026,124.296356 L122.58073,124.296356 L122.58073,130.353036 C123.406641,127.104453 125.55401,124.296356 129.628504,124.296356 L130.729718,124.296356 L130.729718,127.6 L129.132957,127.6 C124.948342,127.6 122.58073,130.408097 122.58073,137.841296 L122.58073,153.919028 L119.222026,153.919028 Z M140.803428,153.919028 C135.847962,153.919028 134.746747,152.212146 134.746747,147.146559 L134.746747,126.82915 L130.672254,126.82915 L130.672254,124.296356 L134.746747,124.296356 L134.746747,117.083401 L138.105452,117.083401 L138.105452,124.296356 L143.2261,124.296356 L143.2261,126.82915 L138.105452,126.82915 L138.105452,146.651012 C138.105452,150.670445 138.545938,151.386235 141.904642,151.386235 L143.2261,151.386235 L143.2261,153.919028 L140.803428,153.919028 Z M154.401024,154.634818 C148.894951,154.634818 147.243129,151.05587 147.243129,143.897976 L147.243129,124.296356 L150.601834,124.296356 L150.601834,142.961943 C150.601834,148.688259 151.372684,151.936842 155.226935,151.936842 C159.136246,151.936842 161.779161,147.97247 161.779161,140.704453 L161.779161,124.296356 L165.137866,124.296356 L165.137866,153.919028 L161.889283,153.919028 L161.889283,148.74332 C160.953251,151.881781 158.310336,154.634818 154.401024,154.634818 Z M172.458539,153.919028 L172.458539,124.296356 L175.817243,124.296356 L175.817243,130.353036 C176.643154,127.104453 178.790523,124.296356 182.865017,124.296356 L183.966231,124.296356 L183.966231,127.6 L182.36947,127.6 C178.184855,127.6 175.817243,130.408097 175.817243,137.841296 L175.817243,153.919028 L172.458539,153.919028 Z M187.377593,153.919028 L187.377593,124.296356 L190.736297,124.296356 L190.736297,153.919028 L187.377593,153.919028 Z M187.377593,119.616194 L187.377593,114 L190.736297,114 L190.736297,119.616194 L187.377593,119.616194 Z M198.05697,153.919028 L198.05697,124.296356 L201.415675,124.296356 L201.415675,129.637247 C202.406768,126.498785 205.104743,123.745749 209.069116,123.745749 C214.575189,123.745749 216.282071,127.159514 216.282071,134.37247 L216.282071,153.919028 L212.923367,153.919028 L212.923367,135.418623 C212.923367,129.582186 212.097456,126.443725 208.133084,126.443725 C204.168711,126.443725 201.415675,130.408097 201.415675,137.676113 L201.415675,153.919028 L198.05697,153.919028 Z M231.806793,164.270445 C224.869141,164.270445 222.776834,160.140891 222.776834,155.791093 L222.776834,155.515789 L226.080477,155.515789 L226.080477,155.791093 C226.080477,159.259919 227.512056,161.682591 231.806793,161.682591 C236.321773,161.682591 238.083716,159.37004 238.083716,153.808907 L238.083716,147.421862 C237.147684,150.780567 234.394647,153.31336 230.540396,153.31336 C224.869141,153.31336 221.675619,148.523077 221.675619,139.878543 L221.675619,136.354656 C221.675619,127.6 224.869141,123.745749 230.540396,123.745749 C234.394647,123.745749 237.147684,126.333603 238.083716,129.637247 L238.083716,124.296356 L241.497481,124.296356 L241.497481,153.038057 C241.497481,159.975709 239.074809,164.270445 231.806793,164.270445 Z M231.146064,150.670445 C235.440801,150.670445 238.248898,147.036437 238.248898,138.612146 C238.248898,130.022672 235.440801,126.388664 231.146064,126.388664 C226.631085,126.388664 225.144445,130.022672 225.144445,137.731174 L225.144445,138.391903 C225.144445,146.100405 226.631085,150.670445 231.146064,150.670445 Z M260.158261,153.919028 L260.158261,114 L279.594698,114 L279.594698,116.973279 L263.682147,116.973279 L263.682147,131.729555 L278.27324,131.729555 L278.27324,134.702834 L263.682147,134.702834 L263.682147,150.945749 L279.594698,150.945749 L279.594698,153.919028 L260.158261,153.919028 Z M281.023873,153.919028 L289.227922,138.667206 L281.629541,124.296356 L285.153428,124.296356 L290.989865,135.363563 L296.936424,124.296356 L300.129946,124.296356 L292.586626,138.391903 L300.845735,153.919028 L297.321849,153.919028 L290.824683,141.695547 L284.272456,153.919028 L281.023873,153.919028 Z M313.287056,154.634818 C306.404465,154.634818 303.431186,150.22996 303.431186,141.2 L303.431186,137.180567 C303.431186,128.205668 306.404465,123.745749 313.287056,123.745749 C318.738068,123.745749 322.317016,127.324696 322.317016,133.65668 L322.317016,133.931984 L319.068433,133.931984 L319.068433,133.65668 C319.068433,129.1417 317.251429,126.333603 313.287056,126.333603 C307.891105,126.333603 306.900012,130.903644 306.900012,138.006478 L306.900012,140.42915 C306.900012,147.476923 307.891105,151.991903 313.287056,151.991903 C317.251429,151.991903 319.068433,149.293927 319.068433,144.723887 L319.068433,144.448583 L322.317016,144.448583 L322.317016,144.723887 C322.317016,151.05587 318.738068,154.634818 313.287056,154.634818 Z M337.511373,154.634818 C330.573721,154.634818 327.325138,150.174899 327.325138,141.255061 L327.325138,137.125506 C327.325138,128.205668 330.408539,123.745749 337.29113,123.745749 C344.11866,123.745749 346.981818,127.985425 346.981818,136.905263 L346.981818,139.217814 L330.793964,139.217814 L330.793964,140.42915 C330.793964,147.476923 332.170482,151.991903 337.511373,151.991903 C341.475745,151.991903 343.568053,149.404049 343.568053,144.94413 L343.568053,144.668826 L346.816636,144.668826 L346.816636,144.94413 C346.816636,151.276113 343.29275,154.634818 337.511373,154.634818 Z M330.793964,136.62996 L330.793964,136.795142 L343.512992,136.795142 L343.512992,136.519838 C343.512992,130.132794 342.466839,126.333603 337.346191,126.333603 C332.0053,126.333603 330.793964,130.573279 330.793964,136.62996 Z M352.70573,153.919028 L352.70573,114 L356.064435,114 L356.064435,153.919028 L352.70573,153.919028 Z M363.385108,153.919028 L363.385108,114 L366.743812,114 L366.743812,153.919028 L363.385108,153.919028 Z M382.929263,154.634818 C375.991611,154.634818 372.743028,150.174899 372.743028,141.255061 L372.743028,137.125506 C372.743028,128.205668 375.826429,123.745749 382.70902,123.745749 C389.53655,123.745749 392.399708,127.985425 392.399708,136.905263 L392.399708,139.217814 L376.211854,139.217814 L376.211854,140.42915 C376.211854,147.476923 377.588372,151.991903 382.929263,151.991903 C386.893635,151.991903 388.985943,149.404049 388.985943,144.94413 L388.985943,144.668826 L392.234526,144.668826 L392.234526,144.94413 C392.234526,151.276113 388.710639,154.634818 382.929263,154.634818 Z M376.211854,136.62996 L376.211854,136.795142 L388.930882,136.795142 L388.930882,136.519838 C388.930882,130.132794 387.884728,126.333603 382.76408,126.333603 C377.42319,126.333603 376.211854,130.573279 376.211854,136.62996 Z M398.12362,153.919028 L398.12362,124.296356 L401.482324,124.296356 L401.482324,129.637247 C402.473418,126.498785 405.171393,123.745749 409.135766,123.745749 C414.641839,123.745749 416.348721,127.159514 416.348721,134.37247 L416.348721,153.919028 L412.990017,153.919028 L412.990017,135.418623 C412.990017,129.582186 412.164106,126.443725 408.199733,126.443725 C404.235361,126.443725 401.482324,130.408097 401.482324,137.676113 L401.482324,153.919028 L398.12362,153.919028 Z M431.598139,154.634818 C424.715548,154.634818 421.742269,150.22996 421.742269,141.2 L421.742269,137.180567 C421.742269,128.205668 424.715548,123.745749 431.598139,123.745749 C437.049151,123.745749 440.628099,127.324696 440.628099,133.65668 L440.628099,133.931984 L437.379516,133.931984 L437.379516,133.65668 C437.379516,129.1417 435.562512,126.333603 431.598139,126.333603 C426.202188,126.333603 425.211095,130.903644 425.211095,138.006478 L425.211095,140.42915 C425.211095,147.476923 426.202188,151.991903 431.598139,151.991903 C435.562512,151.991903 437.379516,149.293927 437.379516,144.723887 L437.379516,144.448583 L440.628099,144.448583 L440.628099,144.723887 C440.628099,151.05587 437.049151,154.634818 431.598139,154.634818 Z M455.822456,154.634818 C448.884804,154.634818 445.636221,150.174899 445.636221,141.255061 L445.636221,137.125506 C445.636221,128.205668 448.719622,123.745749 455.602213,123.745749 C462.429743,123.745749 465.292901,127.985425 465.292901,136.905263 L465.292901,139.217814 L449.105047,139.217814 L449.105047,140.42915 C449.105047,147.476923 450.481565,151.991903 455.822456,151.991903 C459.786828,151.991903 461.879136,149.404049 461.879136,144.94413 L461.879136,144.668826 L465.127719,144.668826 L465.127719,144.94413 C465.127719,151.276113 461.603833,154.634818 455.822456,154.634818 Z M449.105047,136.62996 L449.105047,136.795142 L461.824075,136.795142 L461.824075,136.519838 C461.824075,130.132794 460.777922,126.333603 455.657274,126.333603 C450.316383,126.333603 449.105047,130.573279 449.105047,136.62996 Z" id="Nurturing-Excellence-Copy-5"></path>
        </g>
    </g>
</svg>