<?xml version="1.0" encoding="UTF-8"?>
<svg width="615px" height="165px" viewBox="0 0 615 165" version="1.1" xmlns="http://www.w3.org/2000/svg" xmlns:xlink="http://www.w3.org/1999/xlink">
    <!-- Generator: Sketch 49.1 (51147) - http://www.bohemiancoding.com/sketch -->
    <title>title-desc-white</title>
    <desc>Created with Sketch.</desc>
    <defs></defs>
    <g id="Page-1" stroke="none" stroke-width="1" fill="none" fill-rule="evenodd">
        <g id="title-desc-white" fill="#FFFFFF">
            <path d="M0,114.938961 L4.08671861,114.938961 C17.623974,114.938961 21.9661125,111.107662 21.9661125,96.4210172 L21.9661125,23.8817619 L10.4722164,23.8817619 L10.4722164,96.4210172 C10.4722164,105.105294 9.83366665,107.276363 2.80961904,107.276363 L0,107.276363 L0,114.938961 Z M10.4722164,14.0480952 L21.9661125,14.0480952 L21.9661125,0 L10.4722164,0 L10.4722164,14.0480952 Z M59.9205979,94.2499479 C42.8074637,94.2499479 34.8894464,84.1608613 34.8894464,63.3441384 L34.8894464,53.2550519 C34.8894464,32.310619 42.6797538,22.3492424 59.7928879,22.3492424 C77.0337321,22.3492424 84.3131996,32.182909 84.3131996,54.1490216 L84.3131996,59.3851298 L46.7664724,59.3851298 L46.7664724,61.1730692 C46.7664724,76.6259739 49.0652516,86.0765107 59.9205979,86.0765107 C67.7109052,86.0765107 72.4361736,81.3512423 72.4361736,71.1344458 L72.4361736,70.495896 L83.2915199,70.495896 L83.2915199,71.1344458 C83.2915199,86.4596405 74.6072429,94.2499479 59.9205979,94.2499479 Z M46.7664724,51.2116926 L46.7664724,51.9779523 L72.4361736,51.9779523 L72.4361736,51.0839826 C72.4361736,37.8021471 70.2651044,30.3949696 59.9205979,30.3949696 C49.1929615,30.3949696 46.7664724,38.4406969 46.7664724,51.2116926 Z M143.978378,92.5897185 L156.493953,92.5897185 L127.248373,38.3129869 L153.556624,0 L141.424178,0 L110.262949,45.9755843 L110.262949,0 L98.2582131,0 L98.2582131,92.5897185 L110.262949,92.5897185 L110.262949,63.0887185 L120.096616,48.6574934 L143.978378,92.5897185 Z M163.798049,92.5897185 L175.291945,92.5897185 L175.291945,55.0429913 C175.291945,40.4840562 179.761794,30.9058095 188.701491,30.9058095 C196.874928,30.9058095 198.152027,38.057567 198.152027,50.4454328 L198.152027,92.5897185 L209.645923,92.5897185 L209.645923,46.6141341 C209.645923,29.8841298 205.431495,22.3492424 192.788209,22.3492424 C183.976222,22.3492424 177.846144,27.7130606 175.291945,34.9925281 L175.291945,23.8817619 L163.798049,23.8817619 L163.798049,92.5897185 Z M246.195599,86.0765107 C257.050946,86.0765107 258.838885,76.4982639 258.838885,60.5345194 L258.838885,56.0646709 C258.838885,40.1009263 257.050946,30.3949696 246.195599,30.3949696 C235.340253,30.3949696 233.424604,40.1009263 233.424604,56.0646709 L233.424604,60.5345194 C233.424604,76.4982639 235.340253,86.0765107 246.195599,86.0765107 Z M246.195599,94.2499479 C229.210175,94.2499479 221.547578,84.4162812 221.547578,63.2164285 L221.547578,53.3827618 C221.547578,32.182909 229.210175,22.3492424 246.195599,22.3492424 C262.925604,22.3492424 270.715911,32.182909 270.715911,53.3827618 L270.715911,63.2164285 C270.715911,84.4162812 262.925604,94.2499479 246.195599,94.2499479 Z M288.619933,92.5897185 L301.007799,92.5897185 L311.480015,35.5033679 L321.952232,92.5897185 L334.212388,92.5897185 L345.578574,23.8817619 L335.489487,23.8817619 L327.31605,78.9247531 L316.843834,23.8817619 L305.988487,23.8817619 L295.643981,78.9247531 L287.470544,23.8817619 L277.381457,23.8817619 L288.619933,92.5897185 Z M356.203128,92.5897185 L367.697025,92.5897185 L367.697025,0 L356.203128,0 L356.203128,92.5897185 Z M405.65151,94.2499479 C388.538376,94.2499479 380.620358,84.1608613 380.620358,63.3441384 L380.620358,53.2550519 C380.620358,32.310619 388.410666,22.3492424 405.5238,22.3492424 C422.764644,22.3492424 430.044112,32.182909 430.044112,54.1490216 L430.044112,59.3851298 L392.497384,59.3851298 L392.497384,61.1730692 C392.497384,76.6259739 394.796164,86.0765107 405.65151,86.0765107 C413.441817,86.0765107 418.167086,81.3512423 418.167086,71.1344458 L418.167086,70.495896 L429.022432,70.495896 L429.022432,71.1344458 C429.022432,86.4596405 420.338155,94.2499479 405.65151,94.2499479 Z M392.497384,51.2116926 L392.497384,51.9779523 L418.167086,51.9779523 L418.167086,51.0839826 C418.167086,37.8021471 415.996016,30.3949696 405.65151,30.3949696 C394.923874,30.3949696 392.497384,38.4406969 392.497384,51.2116926 Z M478.215393,34.8648181 L478.215393,0 L489.70929,0 L489.70929,92.5897185 L478.215393,92.5897185 L478.215393,81.7343722 C475.916614,88.7584198 469.403406,94.2499479 460.846839,94.2499479 C447.181874,94.2499479 440.285536,83.9054414 440.285536,63.3441384 L440.285536,53.2550519 C440.285536,32.6937489 447.181874,22.3492424 460.846839,22.3492424 C469.403406,22.3492424 475.916614,27.8407705 478.215393,34.8648181 Z M478.598523,58.3634501 C478.598523,40.7394761 473.490125,30.7780995 464.167298,30.7780995 C454.716762,30.7780995 452.162562,39.5900865 452.162562,56.4478008 L452.162562,60.1513895 C452.162562,77.0091038 454.716762,85.8210908 464.167298,85.8210908 C473.490125,85.8210908 478.598523,75.8597142 478.598523,58.3634501 Z M527.183153,116.59919 C511.602538,116.59919 504.323071,108.681173 504.323071,96.4210172 L504.323071,95.9101773 L515.433837,95.9101773 L515.433837,96.4210172 C515.433837,103.700485 518.882006,108.425753 527.310863,108.425753 C536.63369,108.425753 540.209568,104.083615 540.209568,91.1849089 L540.209568,78.2862033 C537.910789,85.4379609 532.163841,90.929489 523.607274,90.929489 C510.070019,90.929489 502.024291,80.3295626 502.024291,60.2790995 L502.024291,52.1056623 C502.024291,31.5443593 510.070019,22.3492424 523.607274,22.3492424 C532.163841,22.3492424 537.910789,27.9684805 540.209568,34.9925281 L540.209568,23.8817619 L551.703465,23.8817619 L551.703465,89.0138397 C551.703465,107.020944 545.062547,116.59919 527.183153,116.59919 Z M526.769805,82.5006319 C536.603472,82.5006319 541.32874,73.0500951 541.32874,57.0863506 C541.32874,40.2286363 536.603472,30.7780995 526.769805,30.7780995 C517.191559,30.7780995 514.509649,38.6961168 514.509649,54.9152813 L514.509649,56.8309306 C514.509649,72.9223852 517.191559,82.5006319 526.769805,82.5006319 Z M590.266282,94.2499479 C573.153148,94.2499479 565.23513,84.1608613 565.23513,63.3441384 L565.23513,53.2550519 C565.23513,32.310619 573.025438,22.3492424 590.138572,22.3492424 C607.379416,22.3492424 614.658884,32.182909 614.658884,54.1490216 L614.658884,59.3851298 L577.112156,59.3851298 L577.112156,61.1730692 C577.112156,76.6259739 579.410936,86.0765107 590.266282,86.0765107 C598.056589,86.0765107 602.781858,81.3512423 602.781858,71.1344458 L602.781858,70.495896 L613.637204,70.495896 L613.637204,71.1344458 C613.637204,86.4596405 604.952927,94.2499479 590.266282,94.2499479 Z M577.112156,51.2116926 L577.112156,51.9779523 L602.781858,51.9779523 L602.781858,51.0839826 C602.781858,37.8021471 600.610788,30.3949696 590.266282,30.3949696 C579.538646,30.3949696 577.112156,38.4406969 577.112156,51.2116926 Z" id="jeKnowledge"></path>
            <path d="M63,153.919028 L63,114 L67.459919,114 L82.6016194,149.183806 L82.6016194,114 L85.9603239,114 L85.9603239,153.919028 L81.5004049,153.919028 L66.3587045,118.735223 L66.3587045,153.919028 L63,153.919028 Z M100.493952,154.634818 C94.9878796,154.634818 93.3360577,151.05587 93.3360577,143.897976 L93.3360577,124.296356 L96.6947621,124.296356 L96.6947621,142.961943 C96.6947621,148.688259 97.4656124,151.936842 101.319863,151.936842 C105.229175,151.936842 107.87209,147.97247 107.87209,140.704453 L107.87209,124.296356 L111.230795,124.296356 L111.230795,153.919028 L107.982212,153.919028 L107.982212,148.74332 C107.046179,151.881781 104.403264,154.634818 100.493952,154.634818 Z M118.551468,153.919028 L118.551468,124.296356 L121.910172,124.296356 L121.910172,130.353036 C122.736083,127.104453 124.883451,124.296356 128.957945,124.296356 L130.05916,124.296356 L130.05916,127.6 L128.462399,127.6 C124.277783,127.6 121.910172,130.408097 121.910172,137.841296 L121.910172,153.919028 L118.551468,153.919028 Z M140.132869,153.919028 C135.177404,153.919028 134.076189,152.212146 134.076189,147.146559 L134.076189,126.82915 L130.001695,126.82915 L130.001695,124.296356 L134.076189,124.296356 L134.076189,117.083401 L137.434894,117.083401 L137.434894,124.296356 L142.555542,124.296356 L142.555542,126.82915 L137.434894,126.82915 L137.434894,146.651012 C137.434894,150.670445 137.87538,151.386235 141.234084,151.386235 L142.555542,151.386235 L142.555542,153.919028 L140.132869,153.919028 Z M153.730466,154.634818 C148.224393,154.634818 146.572571,151.05587 146.572571,143.897976 L146.572571,124.296356 L149.931275,124.296356 L149.931275,142.961943 C149.931275,148.688259 150.702126,151.936842 154.556377,151.936842 C158.465688,151.936842 161.108603,147.97247 161.108603,140.704453 L161.108603,124.296356 L164.467308,124.296356 L164.467308,153.919028 L161.218725,153.919028 L161.218725,148.74332 C160.282692,151.881781 157.639777,154.634818 153.730466,154.634818 Z M171.787981,153.919028 L171.787981,124.296356 L175.146685,124.296356 L175.146685,130.353036 C175.972596,127.104453 178.119965,124.296356 182.194459,124.296356 L183.295673,124.296356 L183.295673,127.6 L181.698912,127.6 C177.514297,127.6 175.146685,130.408097 175.146685,137.841296 L175.146685,153.919028 L171.787981,153.919028 Z M186.707034,153.919028 L186.707034,124.296356 L190.065739,124.296356 L190.065739,153.919028 L186.707034,153.919028 Z M186.707034,119.616194 L186.707034,114 L190.065739,114 L190.065739,119.616194 L186.707034,119.616194 Z M197.386412,153.919028 L197.386412,124.296356 L200.745116,124.296356 L200.745116,129.637247 C201.73621,126.498785 204.434185,123.745749 208.398558,123.745749 C213.904631,123.745749 215.611513,127.159514 215.611513,134.37247 L215.611513,153.919028 L212.252809,153.919028 L212.252809,135.418623 C212.252809,129.582186 211.426898,126.443725 207.462525,126.443725 C203.498153,126.443725 200.745116,130.408097 200.745116,137.676113 L200.745116,153.919028 L197.386412,153.919028 Z M231.136235,164.270445 C224.198583,164.270445 222.106275,160.140891 222.106275,155.791093 L222.106275,155.515789 L225.409919,155.515789 L225.409919,155.791093 C225.409919,159.259919 226.841498,161.682591 231.136235,161.682591 C235.651215,161.682591 237.413158,159.37004 237.413158,153.808907 L237.413158,147.421862 C236.477126,150.780567 233.724089,153.31336 229.869838,153.31336 C224.198583,153.31336 221.005061,148.523077 221.005061,139.878543 L221.005061,136.354656 C221.005061,127.6 224.198583,123.745749 229.869838,123.745749 C233.724089,123.745749 236.477126,126.333603 237.413158,129.637247 L237.413158,124.296356 L240.826923,124.296356 L240.826923,153.038057 C240.826923,159.975709 238.404251,164.270445 231.136235,164.270445 Z M230.475506,150.670445 C234.770243,150.670445 237.57834,147.036437 237.57834,138.612146 C237.57834,130.022672 234.770243,126.388664 230.475506,126.388664 C225.960526,126.388664 224.473887,130.022672 224.473887,137.731174 L224.473887,138.391903 C224.473887,146.100405 225.960526,150.670445 230.475506,150.670445 Z M259.487702,153.919028 L259.487702,114 L278.92414,114 L278.92414,116.973279 L263.011589,116.973279 L263.011589,131.729555 L277.602682,131.729555 L277.602682,134.702834 L263.011589,134.702834 L263.011589,150.945749 L278.92414,150.945749 L278.92414,153.919028 L259.487702,153.919028 Z M280.353315,153.919028 L288.557363,138.667206 L280.958983,124.296356 L284.482869,124.296356 L290.319307,135.363563 L296.265865,124.296356 L299.459388,124.296356 L291.916068,138.391903 L300.175177,153.919028 L296.651291,153.919028 L290.154125,141.695547 L283.601898,153.919028 L280.353315,153.919028 Z M312.616498,154.634818 C305.733907,154.634818 302.760628,150.22996 302.760628,141.2 L302.760628,137.180567 C302.760628,128.205668 305.733907,123.745749 312.616498,123.745749 C318.06751,123.745749 321.646458,127.324696 321.646458,133.65668 L321.646458,133.931984 L318.397875,133.931984 L318.397875,133.65668 C318.397875,129.1417 316.58087,126.333603 312.616498,126.333603 C307.220547,126.333603 306.229453,130.903644 306.229453,138.006478 L306.229453,140.42915 C306.229453,147.476923 307.220547,151.991903 312.616498,151.991903 C316.58087,151.991903 318.397875,149.293927 318.397875,144.723887 L318.397875,144.448583 L321.646458,144.448583 L321.646458,144.723887 C321.646458,151.05587 318.06751,154.634818 312.616498,154.634818 Z M336.840815,154.634818 C329.903163,154.634818 326.65458,150.174899 326.65458,141.255061 L326.65458,137.125506 C326.65458,128.205668 329.737981,123.745749 336.620572,123.745749 C343.448102,123.745749 346.31126,127.985425 346.31126,136.905263 L346.31126,139.217814 L330.123406,139.217814 L330.123406,140.42915 C330.123406,147.476923 331.499924,151.991903 336.840815,151.991903 C340.805187,151.991903 342.897495,149.404049 342.897495,144.94413 L342.897495,144.668826 L346.146078,144.668826 L346.146078,144.94413 C346.146078,151.276113 342.622191,154.634818 336.840815,154.634818 Z M330.123406,136.62996 L330.123406,136.795142 L342.842434,136.795142 L342.842434,136.519838 C342.842434,130.132794 341.79628,126.333603 336.675633,126.333603 C331.334742,126.333603 330.123406,130.573279 330.123406,136.62996 Z M352.035172,153.919028 L352.035172,114 L355.393877,114 L355.393877,153.919028 L352.035172,153.919028 Z M362.71455,153.919028 L362.71455,114 L366.073254,114 L366.073254,153.919028 L362.71455,153.919028 Z M382.258704,154.634818 C375.321053,154.634818 372.07247,150.174899 372.07247,141.255061 L372.07247,137.125506 C372.07247,128.205668 375.15587,123.745749 382.038462,123.745749 C388.865992,123.745749 391.72915,127.985425 391.72915,136.905263 L391.72915,139.217814 L375.541296,139.217814 L375.541296,140.42915 C375.541296,147.476923 376.917814,151.991903 382.258704,151.991903 C386.223077,151.991903 388.315385,149.404049 388.315385,144.94413 L388.315385,144.668826 L391.563968,144.668826 L391.563968,144.94413 C391.563968,151.276113 388.040081,154.634818 382.258704,154.634818 Z M375.541296,136.62996 L375.541296,136.795142 L388.260324,136.795142 L388.260324,136.519838 C388.260324,130.132794 387.21417,126.333603 382.093522,126.333603 C376.752632,126.333603 375.541296,130.573279 375.541296,136.62996 Z M397.453062,153.919028 L397.453062,124.296356 L400.811766,124.296356 L400.811766,129.637247 C401.802859,126.498785 404.500835,123.745749 408.465208,123.745749 C413.97128,123.745749 415.678163,127.159514 415.678163,134.37247 L415.678163,153.919028 L412.319459,153.919028 L412.319459,135.418623 C412.319459,129.582186 411.493548,126.443725 407.529175,126.443725 C403.564803,126.443725 400.811766,130.408097 400.811766,137.676113 L400.811766,153.919028 L397.453062,153.919028 Z M430.927581,154.634818 C424.04499,154.634818 421.071711,150.22996 421.071711,141.2 L421.071711,137.180567 C421.071711,128.205668 424.04499,123.745749 430.927581,123.745749 C436.378593,123.745749 439.957541,127.324696 439.957541,133.65668 L439.957541,133.931984 L436.708958,133.931984 L436.708958,133.65668 C436.708958,129.1417 434.891953,126.333603 430.927581,126.333603 C425.53163,126.333603 424.540536,130.903644 424.540536,138.006478 L424.540536,140.42915 C424.540536,147.476923 425.53163,151.991903 430.927581,151.991903 C434.891953,151.991903 436.708958,149.293927 436.708958,144.723887 L436.708958,144.448583 L439.957541,144.448583 L439.957541,144.723887 C439.957541,151.05587 436.378593,154.634818 430.927581,154.634818 Z M455.151898,154.634818 C448.214246,154.634818 444.965663,150.174899 444.965663,141.255061 L444.965663,137.125506 C444.965663,128.205668 448.049064,123.745749 454.931655,123.745749 C461.759185,123.745749 464.622343,127.985425 464.622343,136.905263 L464.622343,139.217814 L448.434489,139.217814 L448.434489,140.42915 C448.434489,147.476923 449.811007,151.991903 455.151898,151.991903 C459.11627,151.991903 461.208578,149.404049 461.208578,144.94413 L461.208578,144.668826 L464.457161,144.668826 L464.457161,144.94413 C464.457161,151.276113 460.933274,154.634818 455.151898,154.634818 Z M448.434489,136.62996 L448.434489,136.795142 L461.153517,136.795142 L461.153517,136.519838 C461.153517,130.132794 460.107363,126.333603 454.986716,126.333603 C449.645825,126.333603 448.434489,130.573279 448.434489,136.62996 Z" id="Nurturing-Excellence"></path>
        </g>
    </g>
</svg>