<?xml version="1.0" encoding="UTF-8"?>
<svg width="104px" height="24px" viewBox="0 0 104 24" version="1.1" xmlns="http://www.w3.org/2000/svg" xmlns:xlink="http://www.w3.org/1999/xlink">
    <!-- Generator: Sketch 48.1 (47250) - http://www.bohemiancoding.com/sketch -->
    <title>Group 2</title>
    <desc>Created with Sketch.</desc>
    <defs></defs>
    <g id="NAV" stroke="none" stroke-width="1" fill="none" fill-rule="evenodd" transform="translate(-1288.000000, -593.000000)">
        <g id="Group-2" transform="translate(1288.000000, 593.000000)">
            <g id="icon-(1)-copy" fill-rule="nonzero">
                <g id="g10" transform="translate(9.894737, 10.341481) scale(-1, 1) rotate(-180.000000) translate(-9.894737, -10.341481) translate(0.000000, 0.025692)">
                    <g id="g12" transform="translate(0.027529, 0.061983)">
                        <path d="M12.299217,5.7915852 C12.9306025,6.15776462 13.5288152,6.54536247 14.0904139,6.94935128 C14.3944755,8.69643414 14.5696998,10.9043232 14.2925481,13.2018804 C14.201013,13.264414 14.1073444,13.3269475 14.0131252,13.3890679 C13.3840109,13.8043513 12.7108495,14.198354 11.9992159,14.5659797 C11.4608796,14.8442127 10.9186891,15.0922119 10.3841381,15.3179663 C10.0533041,15.458047 9.71717083,15.5877284 9.36548343,15.7100407 C8.64448987,15.3948936 7.9164075,15.0278189 7.19135335,14.6073703 C6.54248667,14.231067 5.92871991,13.8317614 5.35383834,13.4155138 C5.18370699,12.445004 5.0768243,11.4095502 5.04661084,10.3323615 C5.01605327,9.24828588 5.06471139,8.2025017 5.18150464,7.21911332 C6.73849561,6.17229609 8.46665029,5.30006318 10.1212328,4.68650432 C10.8431899,5.00268445 11.5729928,5.36989691 12.299217,5.7915852" id="path14" fill="#FFFFFF"></path>
                        <path d="M5.35383834,13.4155138 C5.55672962,14.5738997 5.85067421,15.6389673 6.21543804,16.569946 C3.33690083,17.0594019 1.03815916,16.5822736 0.269945882,15.0924185 C-0.410765368,13.7726713 0.251611338,11.9327523 1.84911863,10.0942795 C2.72056695,11.2300073 3.91384709,12.3739995 5.35383834,13.4155138" id="path16" fill="#FFFFFF"></path>
                        <path d="M17.6419059,10.3044694 C16.9578017,9.41226429 16.0748668,8.51585817 15.029784,7.66717865 C14.920286,6.08758654 14.6610284,4.68974119 14.3458174,3.6892043 C16.7150617,3.47791251 18.5508561,4.00696843 19.2209204,5.30653692 C19.9017899,6.6262842 19.2396404,8.46620322 17.6419059,10.3044694" id="path18" fill="#FFFFFF"></path>
                        <path d="M13.3965367,16.9472823 C13.3036252,17.1956259 13.2029366,17.4427987 13.0947463,17.6881809 C13.0319794,17.8071875 11.9649419,20.3413805 10.0338959,20.3970271 C8.72005792,20.4347676 7.4996132,19.2972492 6.59369125,17.4357051 C7.99493495,17.0370193 9.26045898,16.5979759 10.3797334,16.1226382 C11.4277755,16.5146437 12.4458108,16.7900531 13.3965367,16.9472823" id="path20" fill="#FFFFFF"></path>
                        <path d="M6.07145956,3.44767877 C6.87297647,1.36706066 8.07786711,0.0408396459 9.45763792,0.00212806924 C10.729769,-0.0336014557 11.9149073,1.03153508 12.8114005,2.78929961 C11.9784313,3.01344935 10.5942558,3.49451007 9.03657658,4.24746091 C8.00615316,3.86736984 7.00642497,3.60043145 6.07145956,3.44767877" id="path22" fill="#FFFFFF"></path>
                        <path d="M1.77997179,10.0032339 C0.338714188,8.08810936 -0.180902213,6.20459592 0.583463837,4.88484864 C1.39584795,3.48259564 3.48232459,3.02474395 6.07145956,3.44767877 C5.72830627,4.33885081 5.45913809,5.36851952 5.28150499,6.49391691 C3.9648452,7.46725033 2.72903222,8.63445154 1.77997179,10.0032339" id="path24" fill="#FFFFFF"></path>
                        <path d="M17.6850582,10.3605981 C19.1465223,12.2880503 19.6765999,14.1860952 18.9073612,15.513487 C18.1024719,16.9032746 16.0471998,17.3659403 13.4913065,16.9631911 C14.0187688,15.9147899 14.3956455,14.7720374 14.648709,13.59912 C16.3410067,12.2382576 17.2888421,10.9632755 17.6850582,10.3605981" id="path26" fill="#FFFFFF"></path>
                        <path d="M14.792481,12.8496126 C15.0961297,11.0796651 15.1416908,9.27851962 15.029784,7.66717865 C16.0748668,8.51585817 16.9578017,9.41226429 17.6419059,10.3044694 C17.5572532,10.4019198 17.4701228,10.4994391 17.3802395,10.5966829 C16.7680557,11.2487398 15.9008125,12.0437011 14.792481,12.8496126" id="path28" fill="#1690C3"></path>
                        <path d="M5.28150499,6.49391691 C5.45913809,5.36851952 5.72830627,4.33885081 6.07145956,3.44767877 C7.00642497,3.60043145 8.00615316,3.86736984 9.03657658,4.24746091 C7.83051594,4.83037282 6.52170202,5.57629897 5.28150499,6.49391691" id="path30" fill="#1690C3"></path>
                        <path d="M12.299217,5.7915852 C11.5729928,5.36989691 10.8431899,5.00268445 10.1212328,4.68650432 C10.4807661,4.5555833 10.6499339,4.49546018 10.9285309,4.4060675 C11.6961867,4.16013432 12.4433331,3.97831869 13.1528332,3.8498081 C13.1754072,3.8457448 13.198119,3.84154376 13.2202801,3.83789367 C13.2391377,3.83507002 13.2573759,3.83245298 13.2762335,3.82921611 C13.3114022,3.9188154 13.3459515,4.01061851 13.3800191,4.10304146 C13.6068609,4.74869353 13.8794703,5.73834903 14.0904139,6.94935128 C13.5288152,6.54536247 12.9306025,6.15776462 12.299217,5.7915852" id="path32" fill="#1690C3"></path>
                        <path d="M7.19135335,14.6073703 C7.9164075,15.0278189 8.64448987,15.3948936 9.36548343,15.7100407 C8.38839813,16.0499808 7.3514365,16.3528691 6.23195565,16.5673289 C6.22651861,16.5685686 6.22066862,16.5691195 6.21543804,16.569946 C5.85067421,15.6389673 5.55672962,14.5738997 5.35383834,13.4155138 C5.92871991,13.8317614 6.54248667,14.231067 7.19135335,14.6073703" id="path34" fill="#1690C3"></path>
                        <path d="M3.53697035,8.44843487 C3.59361197,8.4006394 3.64949655,8.35318828 3.70717053,8.30642585 C3.71302051,8.30174272 3.71921461,8.29671525 3.72485813,8.29210099 C4.18652526,7.91758835 4.67517115,7.55905345 5.18150464,7.21911332 C5.06471139,8.2025017 5.01605327,9.24828588 5.04661084,10.3323615 C5.0768243,11.4095502 5.18370699,12.445004 5.35383834,13.4155138 C3.91384709,12.3739995 2.72056695,11.2300073 1.84911863,10.0942795 C2.33061377,9.54139471 2.89698188,8.9872014 3.53697035,8.44843487" id="path36" fill="#1690C3"></path>
                        <path d="M14.1849084,13.9586879 C14.0214529,14.9556436 13.7670129,15.9618278 13.3965367,16.9472823 C12.4458108,16.7900531 11.4277755,16.5146437 10.3797334,16.1226382 C11.4586772,15.6646557 12.4018326,15.1727204 13.198119,14.6521355 C13.5497375,14.4219734 13.877612,14.1896764 14.1849084,13.9586879" id="path38" fill="#1690C3"></path>
                    </g>
                </g>
            </g>
            <path d="M24,17.678907 L24.5312734,17.678907 C26.2911166,17.678907 26.8555946,17.1808382 26.8555946,15.2715743 L26.8555946,5.84147115 L25.3613881,5.84147115 L25.3613881,15.2715743 C25.3613881,16.4005304 25.2783767,16.6827694 24.3652505,16.6827694 L24,16.6827694 L24,17.678907 Z M25.3613881,4.56309448 L26.8555946,4.56309448 L26.8555946,2.73684211 L25.3613881,2.73684211 L25.3613881,4.56309448 Z M31.7896777,14.9893353 C29.5649703,14.9893353 28.535628,13.6777541 28.535628,10.9715801 L28.535628,9.65999885 C28.535628,6.93722257 29.548368,5.64224362 31.7730754,5.64224362 C34.0143852,5.64224362 34.9607159,6.92062028 34.9607159,9.77621491 L34.9607159,10.456909 L30.0796414,10.456909 L30.0796414,10.6893411 C30.0796414,12.6982187 30.3784827,13.9267885 31.7896777,13.9267885 C32.8024177,13.9267885 33.4167026,13.3125036 33.4167026,11.9843201 L33.4167026,11.9013086 L34.8278976,11.9013086 L34.8278976,11.9843201 C34.8278976,13.9765954 33.6989416,14.9893353 31.7896777,14.9893353 Z M30.0796414,9.39436214 L30.0796414,9.4939759 L33.4167026,9.4939759 L33.4167026,9.37775984 C33.4167026,7.65112123 33.1344636,6.68818816 31.7896777,6.68818816 C30.395085,6.68818816 30.0796414,7.7341327 30.0796414,9.39436214 Z M42.7171891,14.7735055 L44.3442139,14.7735055 L40.5422885,7.71753041 L43.9623612,2.73684211 L42.3851432,2.73684211 L38.3341834,8.71366807 L38.3341834,2.73684211 L36.7735677,2.73684211 L36.7735677,14.7735055 L38.3341834,14.7735055 L38.3341834,10.9383755 L39.61256,9.06231625 L42.7171891,14.7735055 Z M45.2937464,14.7735055 L46.7879529,14.7735055 L46.7879529,9.89243097 C46.7879529,7.99976941 47.3690332,6.75459734 48.5311938,6.75459734 C49.5937406,6.75459734 49.7597636,7.68432582 49.7597636,9.29474837 L49.7597636,14.7735055 L51.2539701,14.7735055 L51.2539701,8.79667954 C51.2539701,6.62177898 50.7060943,5.64224362 49.0624672,5.64224362 C47.9169089,5.64224362 47.1199988,6.33953998 46.7879529,7.28587076 L46.7879529,5.84147115 L45.2937464,5.84147115 L45.2937464,14.7735055 Z M56.0054279,13.9267885 C57.4166229,13.9267885 57.6490551,12.6816164 57.6490551,10.6063296 L57.6490551,10.0252493 C57.6490551,7.94996253 57.4166229,6.68818816 56.0054279,6.68818816 C54.5942329,6.68818816 54.3451985,7.94996253 54.3451985,10.0252493 L54.3451985,10.6063296 C54.3451985,12.6816164 54.5942329,13.9267885 56.0054279,13.9267885 Z M56.0054279,14.9893353 C53.7973228,14.9893353 52.8011851,13.7109587 52.8011851,10.9549778 L52.8011851,9.67660114 C52.8011851,6.92062028 53.7973228,5.64224362 56.0054279,5.64224362 C58.1803285,5.64224362 59.1930684,6.92062028 59.1930684,9.67660114 L59.1930684,10.9549778 C59.1930684,13.7109587 58.1803285,14.9893353 56.0054279,14.9893353 Z M61.5205913,14.7735055 L63.1310139,14.7735055 L64.492402,7.35227993 L65.8537901,14.7735055 L67.4476104,14.7735055 L68.9252146,5.84147115 L67.6136333,5.84147115 L66.5510865,12.99706 L65.1896984,5.84147115 L63.7785033,5.84147115 L62.4337175,12.99706 L61.3711707,5.84147115 L60.0595894,5.84147115 L61.5205913,14.7735055 Z M70.3064067,14.7735055 L71.8006132,14.7735055 L71.8006132,2.73684211 L70.3064067,2.73684211 L70.3064067,14.7735055 Z M76.7346963,14.9893353 C74.5099888,14.9893353 73.4806466,13.6777541 73.4806466,10.9715801 L73.4806466,9.65999885 C73.4806466,6.93722257 74.4933866,5.64224362 76.718094,5.64224362 C78.9594037,5.64224362 79.9057345,6.92062028 79.9057345,9.77621491 L79.9057345,10.456909 L75.02466,10.456909 L75.02466,10.6893411 C75.02466,12.6982187 75.3235013,13.9267885 76.7346963,13.9267885 C77.7474362,13.9267885 78.3617211,13.3125036 78.3617211,11.9843201 L78.3617211,11.9013086 L79.7729162,11.9013086 L79.7729162,11.9843201 C79.7729162,13.9765954 78.6439601,14.9893353 76.7346963,14.9893353 Z M75.02466,9.39436214 L75.02466,9.4939759 L78.3617211,9.4939759 L78.3617211,9.37775984 C78.3617211,7.65112123 78.0794821,6.68818816 76.7346963,6.68818816 C75.3401036,6.68818816 75.02466,7.7341327 75.02466,9.39436214 Z M86.1680012,7.26926846 L86.1680012,2.73684211 L87.6622076,2.73684211 L87.6622076,14.7735055 L86.1680012,14.7735055 L86.1680012,13.3623105 C85.8691599,14.2754367 85.0224428,14.9893353 83.9100891,14.9893353 C82.1336436,14.9893353 81.2371197,13.6445495 81.2371197,10.9715801 L81.2371197,9.65999885 C81.2371197,6.98702946 82.1336436,5.64224362 83.9100891,5.64224362 C85.0224428,5.64224362 85.8691599,6.35614227 86.1680012,7.26926846 Z M86.217808,10.3240906 C86.217808,8.032974 85.5537163,6.73799504 84.3417488,6.73799504 C83.113179,6.73799504 82.7811331,7.88355335 82.7811331,10.0750562 L82.7811331,10.5565227 C82.7811331,12.7480256 83.113179,13.8935839 84.3417488,13.8935839 C85.5537163,13.8935839 86.217808,12.5986049 86.217808,10.3240906 Z M92.5338099,17.8947368 C90.50833,17.8947368 89.5619992,16.8653946 89.5619992,15.2715743 L89.5619992,15.2051652 L91.0063988,15.2051652 L91.0063988,15.2715743 C91.0063988,16.2179051 91.4546607,16.83219 92.5504122,16.83219 C93.7623797,16.83219 94.2272439,16.267712 94.2272439,14.5908803 L94.2272439,12.9140485 C93.9284026,13.843777 93.1812994,14.5576757 92.0689456,14.5576757 C90.3091024,14.5576757 89.2631579,13.1796852 89.2631579,10.573125 L89.2631579,9.5105782 C89.2631579,6.83760881 90.3091024,5.64224362 92.0689456,5.64224362 C93.1812994,5.64224362 93.9284026,6.37274457 94.2272439,7.28587076 L94.2272439,5.84147115 L95.7214504,5.84147115 L95.7214504,14.3086413 C95.7214504,16.6495648 94.8581311,17.8947368 92.5338099,17.8947368 Z M92.4800747,13.4619243 C93.7584513,13.4619243 94.3727362,12.2333545 94.3727362,10.1580677 C94.3727362,7.96656482 93.7584513,6.73799504 92.4800747,6.73799504 C91.2349026,6.73799504 90.8862544,7.76733729 90.8862544,9.87582867 L90.8862544,10.1248631 C90.8862544,12.2167522 91.2349026,13.4619243 92.4800747,13.4619243 Z M100.734617,14.9893353 C98.5099092,14.9893353 97.480567,13.6777541 97.480567,10.9715801 L97.480567,9.65999885 C97.480567,6.93722257 98.4933069,5.64224362 100.718014,5.64224362 C102.959324,5.64224362 103.905655,6.92062028 103.905655,9.77621491 L103.905655,10.456909 L99.0245803,10.456909 L99.0245803,10.6893411 C99.0245803,12.6982187 99.3234216,13.9267885 100.734617,13.9267885 C101.747357,13.9267885 102.361641,13.3125036 102.361641,11.9843201 L102.361641,11.9013086 L103.772837,11.9013086 L103.772837,11.9843201 C103.772837,13.9765954 102.643881,14.9893353 100.734617,14.9893353 Z M99.0245803,9.39436214 L99.0245803,9.4939759 L102.361641,9.4939759 L102.361641,9.37775984 C102.361641,7.65112123 102.079402,6.68818816 100.734617,6.68818816 C99.3400239,6.68818816 99.0245803,7.7341327 99.0245803,9.39436214 Z" id="jeKnowledge" fill="#FFFFFF"></path>
            <path d="M29.4736842,22.7087104 L29.7762149,22.7087104 L29.7762149,17.3590823 L29.4736842,17.3590823 L29.4736842,22.7087104 Z M32.3307018,22.5316193 C33.3489759,22.5316193 33.5334458,21.6830576 33.5334458,20.1408889 L33.5334458,19.919525 C33.5334458,18.3847351 33.3489759,17.5287946 32.3307018,17.5287946 C31.3198065,17.5287946 31.1353366,18.3847351 31.1353366,19.919525 L31.1353366,20.1408889 C31.1353366,21.6830576 31.3198065,22.5316193 32.3307018,22.5316193 Z M32.3307018,22.8046348 C31.2533974,22.8046348 30.8328059,22.0446187 30.8328059,20.3179801 L30.8328059,19.7498126 C30.8328059,18.023174 31.2533974,17.2631579 32.3307018,17.2631579 C33.415385,17.2631579 33.8359765,18.023174 33.8359765,19.7498126 L33.8359765,20.3179801 C33.8359765,22.0446187 33.415385,22.8046348 32.3307018,22.8046348 Z M35.6820988,22.7087104 L35.896084,22.7087104 L35.896084,22.4578313 L35.7411292,22.4578313 C35.2541286,22.4578313 35.202477,22.3545282 35.202477,21.7863608 L35.202477,18.9897965 L35.896084,18.9897965 L35.896084,18.7389174 L35.202477,18.7389174 L35.202477,17.8018101 L34.9147039,17.8018101 L34.9147039,18.7389174 L34.3539153,18.7389174 L34.3539153,18.9897965 L34.9147039,18.9897965 L34.9147039,21.8453911 C34.9147039,22.4873465 35.0475222,22.7087104 35.6820988,22.7087104 Z M36.6353867,22.7087104 L36.9231598,22.7087104 L36.9231598,20.5245864 C36.9231598,19.4620395 37.3732664,18.9307661 37.9192974,18.9307661 C38.4874648,18.9307661 38.6202832,19.3661152 38.6202832,20.1925405 L38.6202832,22.7087104 L38.9080563,22.7087104 L38.9080563,20.1113737 C38.9080563,19.1521301 38.6940712,18.6725082 37.9561914,18.6725082 C37.4101604,18.6725082 37.0338417,19.0857209 36.9231598,19.5063123 L36.9231598,17.3590823 L36.6353867,17.3590823 L36.6353867,22.7087104 Z M41.0655111,24 L41.2057083,24 C41.8698,24 41.9362092,23.8671816 42.2387399,22.797256 L43.3676959,18.7389174 L43.072544,18.7389174 L42.1280579,22.325013 L41.1614355,18.7389174 L40.8589048,18.7389174 L41.980482,22.7087104 L41.8845576,23.0481351 C41.7000877,23.7196057 41.6262997,23.7491209 41.2130871,23.7491209 L41.0655111,23.7491209 L41.0655111,24 Z M45.1105151,22.8046348 C44.2324382,22.8046348 43.8266043,22.214331 43.8266043,21.0042082 L43.8266043,20.4803136 C43.8266043,19.262812 44.202923,18.6725082 45.0809999,18.6725082 C45.9369404,18.6725082 46.2911227,19.225918 46.2911227,20.3770104 L46.2911227,20.7164351 L44.1217562,20.7164351 L44.1217562,20.9009051 C44.1217562,21.8970427 44.3283626,22.5463769 45.1105151,22.5463769 C45.7008189,22.5463769 45.988592,22.140543 45.988592,21.5281028 L45.988592,21.4912089 L46.2763651,21.4912089 L46.2763651,21.5281028 C46.2763651,22.3028766 45.8262584,22.8046348 45.1105151,22.8046348 Z M44.1217562,20.4434196 L44.1217562,20.4581772 L45.9959708,20.4581772 L45.9959708,20.428662 C45.9959708,19.5063123 45.841016,18.9307661 45.0809999,18.9307661 C44.2914686,18.9307661 44.1217562,19.5801003 44.1217562,20.4434196 Z M47.9158811,22.8046348 C47.3181985,22.8046348 46.9123646,22.3766646 46.9123646,21.7642244 L46.9123646,21.6978152 C46.9123646,21.1370266 47.1484862,20.7385715 48.9858067,20.2220557 L48.9858067,19.8309794 C48.9858067,19.1004785 48.6316245,18.9086297 48.1520026,18.9086297 C47.665002,18.9086297 47.2665469,19.1521301 47.2665469,19.7940854 L47.2665469,19.882631 L46.9787738,19.882631 L46.9787738,19.7940854 C46.9787738,19.0414481 47.4583957,18.6577506 48.1667602,18.6577506 C48.8087156,18.6577506 49.2735798,18.8938721 49.2735798,19.8531158 C49.2735798,20.1999193 49.266201,21.1444054 49.266201,21.4764513 C49.266201,22.2069522 49.2883374,22.4356949 49.2957162,22.7087104 L49.0153219,22.7087104 L49.0079431,22.0446187 C48.8382308,22.5021041 48.5061849,22.8046348 47.9158811,22.8046348 Z M47.9601539,22.5463769 C48.4914273,22.5463769 48.9931855,22.1995734 48.9931855,21.1665418 L48.9931855,20.4729348 C47.5026684,20.8861475 47.2075165,21.1665418 47.2075165,21.7199516 L47.2075165,21.7863608 C47.2075165,22.2364674 47.5100472,22.5463769 47.9601539,22.5463769 Z M50.2785193,22.7087104 L50.5662924,22.7087104 L50.5662924,20.5245864 C50.5662924,19.4546607 50.9352322,19.0119329 51.4960209,19.0119329 L51.6804908,19.0119329 L51.6804908,18.7389174 L51.5329148,18.7389174 C50.979505,18.7389174 50.6769743,19.1078573 50.5662924,19.5284487 L50.5662924,18.7389174 L50.2785193,18.7389174 L50.2785193,22.7087104 Z M54.6422345,22.5463769 C55.4170083,22.5463769 55.5940994,21.8822851 55.5940994,20.8418747 L55.5940994,20.6352683 C55.5940994,19.5948579 55.4170083,18.9307661 54.6422345,18.9307661 C53.860082,18.9307661 53.6903696,19.5948579 53.6903696,20.6352683 L53.6903696,20.8418747 C53.6903696,21.8822851 53.860082,22.5463769 54.6422345,22.5463769 Z M54.6422345,22.8046348 C53.7789152,22.8046348 53.3952177,22.214331 53.3952177,21.0042082 L53.3952177,20.4803136 C53.3952177,19.262812 53.7789152,18.6725082 54.6422345,18.6725082 C55.5055538,18.6725082 55.8892513,19.262812 55.8892513,20.4803136 L55.8892513,21.0042082 C55.8892513,22.214331 55.5055538,22.8046348 54.6422345,22.8046348 Z M56.8794331,22.7087104 L57.1672062,22.7087104 L57.1672062,18.9897965 L57.905086,18.9897965 L57.905086,18.7389174 L57.1672062,18.7389174 L57.1672062,18.2814319 C57.1672062,17.7132645 57.2188578,17.6099614 57.7058584,17.6099614 L57.905086,17.6099614 L57.905086,17.3590823 L57.6468281,17.3590823 C57.0122515,17.3590823 56.8794331,17.5804462 56.8794331,18.2224016 L56.8794331,18.7389174 L56.3186445,18.7389174 L56.3186445,18.9897965 L56.8794331,18.9897965 L56.8794331,22.7087104 Z M60.0477832,22.7087104 L62.5713319,22.7087104 L62.5713319,22.4209373 L60.3503139,22.4209373 L60.3503139,20.0671009 L62.386862,20.0671009 L62.386862,19.7867066 L60.3503139,19.7867066 L60.3503139,17.6468554 L62.5713319,17.6468554 L62.5713319,17.3590823 L60.0477832,17.3590823 L60.0477832,22.7087104 Z M62.9195584,22.7087104 L63.2073315,22.7087104 L64.1444387,20.9230414 L65.081546,22.7087104 L65.3840767,22.7087104 L64.2993935,20.6278895 L65.2881524,18.7389174 L65.0077581,18.7389174 L64.1518175,20.354874 L63.3106346,18.7389174 L63.0081039,18.7389174 L64.0042416,20.6500259 L62.9195584,22.7087104 Z M67.0604867,22.8046348 C67.7762301,22.8046348 68.2042003,22.288119 68.2042003,21.5133452 L68.2042003,21.4764513 L67.9164272,21.4764513 L67.9164272,21.5133452 C67.9164272,22.1184066 67.6507905,22.5463769 67.0604867,22.5463769 C66.2709554,22.5463769 66.1012431,21.8970427 66.1012431,20.9009051 L66.1012431,20.5836168 C66.1012431,19.5801003 66.2709554,18.9307661 67.0604867,18.9307661 C67.6507905,18.9307661 67.9164272,19.3587364 67.9164272,19.9711766 L67.9164272,20.0006918 L68.2042003,20.0006918 L68.2042003,19.9711766 C68.2042003,19.189024 67.7762301,18.6725082 67.0604867,18.6725082 C66.1824098,18.6725082 65.8060912,19.262812 65.8060912,20.4803136 L65.8060912,21.0042082 C65.8060912,22.214331 66.1824098,22.8046348 67.0604867,22.8046348 Z M70.1978986,22.8046348 C69.3198217,22.8046348 68.9139879,22.214331 68.9139879,21.0042082 L68.9139879,20.4803136 C68.9139879,19.262812 69.2903065,18.6725082 70.1683834,18.6725082 C71.0243239,18.6725082 71.3785062,19.225918 71.3785062,20.3770104 L71.3785062,20.7164351 L69.2091398,20.7164351 L69.2091398,20.9009051 C69.2091398,21.8970427 69.4157461,22.5463769 70.1978986,22.5463769 C70.7882024,22.5463769 71.0759755,22.140543 71.0759755,21.5281028 L71.0759755,21.4912089 L71.3637486,21.4912089 L71.3637486,21.5281028 C71.3637486,22.3028766 70.913642,22.8046348 70.1978986,22.8046348 Z M69.2091398,20.4434196 L69.2091398,20.4581772 L71.0833543,20.4581772 L71.0833543,20.428662 C71.0833543,19.5063123 70.9283996,18.9307661 70.1683834,18.9307661 C69.3788521,18.9307661 69.2091398,19.5801003 69.2091398,20.4434196 Z M72.2432485,22.7087104 L72.5310216,22.7087104 L72.5310216,17.3590823 L72.2432485,17.3590823 L72.2432485,22.7087104 Z M73.6023702,22.7087104 L73.8901433,22.7087104 L73.8901433,17.3590823 L73.6023702,17.3590823 L73.6023702,22.7087104 Z M76.0535539,22.8046348 C75.175477,22.8046348 74.7696432,22.214331 74.7696432,21.0042082 L74.7696432,20.4803136 C74.7696432,19.262812 75.1459618,18.6725082 76.0240387,18.6725082 C76.8799793,18.6725082 77.2341615,19.225918 77.2341615,20.3770104 L77.2341615,20.7164351 L75.0647951,20.7164351 L75.0647951,20.9009051 C75.0647951,21.8970427 75.2714014,22.5463769 76.0535539,22.5463769 C76.6438577,22.5463769 76.9316308,22.140543 76.9316308,21.5281028 L76.9316308,21.4912089 L77.2194039,21.4912089 L77.2194039,21.5281028 C77.2194039,22.3028766 76.7692973,22.8046348 76.0535539,22.8046348 Z M75.0647951,20.4434196 L75.0647951,20.4581772 L76.9390096,20.4581772 L76.9390096,20.428662 C76.9390096,19.5063123 76.7840549,18.9307661 76.0240387,18.9307661 C75.2345074,18.9307661 75.0647951,19.5801003 75.0647951,20.4434196 Z M78.0989038,22.7087104 L78.3866769,22.7087104 L78.3866769,20.5245864 C78.3866769,19.4620395 78.8367836,18.9307661 79.3828146,18.9307661 C79.950982,18.9307661 80.0838003,19.3661152 80.0838003,20.1925405 L80.0838003,22.7087104 L80.3715734,22.7087104 L80.3715734,20.1113737 C80.3715734,19.1521301 80.1575883,18.6725082 79.4197086,18.6725082 C78.8736775,18.6725082 78.4973589,19.0857209 78.3866769,19.5063123 L78.3866769,18.7389174 L78.0989038,18.7389174 L78.0989038,22.7087104 Z M82.4169233,22.8046348 C83.1326667,22.8046348 83.5606369,22.288119 83.5606369,21.5133452 L83.5606369,21.4764513 L83.2728638,21.4764513 L83.2728638,21.5133452 C83.2728638,22.1184066 83.0072271,22.5463769 82.4169233,22.5463769 C81.627392,22.5463769 81.4576796,21.8970427 81.4576796,20.9009051 L81.4576796,20.5836168 C81.4576796,19.5801003 81.627392,18.9307661 82.4169233,18.9307661 C83.0072271,18.9307661 83.2728638,19.3587364 83.2728638,19.9711766 L83.2728638,20.0006918 L83.5606369,20.0006918 L83.5606369,19.9711766 C83.5606369,19.189024 83.1326667,18.6725082 82.4169233,18.6725082 C81.5388464,18.6725082 81.1625277,19.262812 81.1625277,20.4803136 L81.1625277,21.0042082 C81.1625277,22.214331 81.5388464,22.8046348 82.4169233,22.8046348 Z M85.5543352,22.8046348 C84.6762583,22.8046348 84.2704244,22.214331 84.2704244,21.0042082 L84.2704244,20.4803136 C84.2704244,19.262812 84.6467431,18.6725082 85.52482,18.6725082 C86.3807605,18.6725082 86.7349428,19.225918 86.7349428,20.3770104 L86.7349428,20.7164351 L84.5655763,20.7164351 L84.5655763,20.9009051 C84.5655763,21.8970427 84.7721827,22.5463769 85.5543352,22.5463769 C86.144639,22.5463769 86.4324121,22.140543 86.4324121,21.5281028 L86.4324121,21.4912089 L86.7201852,21.4912089 L86.7201852,21.5281028 C86.7201852,22.3028766 86.2700786,22.8046348 85.5543352,22.8046348 Z M84.5655763,20.4434196 L84.5655763,20.4581772 L86.4397909,20.4581772 L86.4397909,20.428662 C86.4397909,19.5063123 86.2848362,18.9307661 85.52482,18.9307661 C84.7352887,18.9307661 84.5655763,19.5801003 84.5655763,20.4434196 Z" id="I0th-year-of-Excelle-Copy" fill="#FFFFFF"></path>
        </g>
    </g>
</svg>