<?xml version="1.0" encoding="UTF-8" standalone="no"?>
<svg
   xmlns:dc="http://purl.org/dc/elements/1.1/"
   xmlns:cc="http://creativecommons.org/ns#"
   xmlns:rdf="http://www.w3.org/1999/02/22-rdf-syntax-ns#"
   xmlns:svg="http://www.w3.org/2000/svg"
   xmlns="http://www.w3.org/2000/svg"
   viewBox="0 0 533.33331 533.33331"
   height="533.33331"
   width="533.33331"
   xml:space="preserve"
   id="svg2"
   version="1.1"><metadata
     id="metadata8"><rdf:RDF><cc:Work
         rdf:about=""><dc:format>image/svg+xml</dc:format><dc:type
           rdf:resource="http://purl.org/dc/dcmitype/StillImage" /></cc:Work></rdf:RDF></metadata><defs
     id="defs6" /><g
     transform="matrix(1.3333333,0,0,-1.3333333,0,533.33333)"
     id="g10"><g
       transform="scale(0.1)"
       id="g12"><path
         id="path14"
         style="fill:#7ccced;fill-opacity:1;fill-rule:nonzero;stroke:none"
         d="m 2371.07,1359.95 c 91.74,53.17 178.66,109.45 260.26,168.11 44.18,253.68 69.64,574.27 29.37,907.88 -13.3,9.08 -26.91,18.16 -40.6,27.18 -91.41,60.3 -189.22,117.51 -292.62,170.89 -78.22,40.4 -157,76.41 -234.67,109.19 -48.07,20.34 -96.91,39.17 -148.01,56.93 -104.76,-45.76 -210.55,-99.06 -315.9,-160.11 -94.28,-54.64 -183.46,-112.62 -266.99,-173.06 -24.72,-140.92 -40.25,-291.27 -44.64,-447.68 -4.44,-157.41 2.63,-309.26 19.6,-452.05 226.23,-152 477.33,-278.65 717.74,-367.74 104.9,45.91 210.94,99.23 316.46,160.46" /><path
         id="path16"
         style="fill:#7ccced;fill-opacity:1;fill-rule:nonzero;stroke:none"
         d="m 1361.91,2466.96 c 29.48,168.2 72.19,322.85 125.19,458.03 -418.25,71.07 -752.256,1.79 -863.877,-214.54 -98.907,-191.63 -2.664,-458.79 229.453,-725.74 126.621,164.91 300.004,331.02 509.234,482.25" /><path
         id="path18"
         style="fill:#7ccced;fill-opacity:1;fill-rule:nonzero;stroke:none"
         d="m 3147.36,2015.23 c -99.4,-129.55 -227.69,-259.71 -379.54,-382.94 -15.91,-229.36 -53.58,-432.33 -99.38,-577.61 344.25,-30.68 610.99,46.14 708.35,234.84 98.93,191.63 2.72,458.79 -229.43,725.71" /><path
         id="path20"
         style="fill:#7ccced;fill-opacity:1;fill-rule:nonzero;stroke:none"
         d="m 2530.51,2979.78 c -13.5,36.06 -28.13,71.95 -43.85,107.58 -9.12,17.28 -164.16,385.25 -444.74,393.33 -190.9,5.48 -368.23,-159.69 -499.86,-429.99 203.6,-57.89 387.48,-121.64 550.11,-190.66 152.28,56.92 300.2,96.91 438.34,119.74" /><path
         id="path22"
         style="fill:#7ccced;fill-opacity:1;fill-rule:nonzero;stroke:none"
         d="m 1466.18,1019.61 c 116.46,-302.11 291.53,-494.68 492.01,-500.301 184.84,-5.188 357.04,149.472 487.3,404.703 -121.03,32.547 -322.15,102.398 -548.48,211.728 -149.72,-55.19 -294.98,-93.95 -430.83,-116.13" /><path
         id="path24"
         style="fill:#7ccced;fill-opacity:1;fill-rule:nonzero;stroke:none"
         d="M 842.629,1971.49 C 633.215,1693.41 557.715,1419.92 668.777,1228.29 786.816,1024.68 1089.98,958.199 1466.18,1019.61 c -49.86,129.4 -88.97,278.91 -114.78,442.32 -191.31,141.33 -370.873,310.81 -508.771,509.56" /><path
         id="path26"
         style="fill:#7ccced;fill-opacity:1;fill-rule:nonzero;stroke:none"
         d="m 3153.63,2023.38 c 212.35,279.87 289.37,555.47 177.6,748.21 -116.95,201.8 -415.58,268.98 -786.95,210.5 76.64,-152.23 131.4,-318.16 168.17,-488.47 245.89,-197.6 383.61,-382.73 441.18,-470.24" /><path
         id="path28"
         style="fill:#3e94cf;fill-opacity:1;fill-rule:nonzero;stroke:none"
         d="m 2733.34,2384.79 c 44.12,-257 50.74,-518.53 34.48,-752.5 151.85,123.23 280.14,253.39 379.54,382.94 -12.3,14.15 -24.96,28.31 -38.02,42.43 -88.95,94.68 -214.96,210.11 -376,327.13" /><path
         id="path30"
         style="fill:#3e94cf;fill-opacity:1;fill-rule:nonzero;stroke:none"
         d="m 1351.4,1461.93 c 25.81,-163.41 64.92,-312.92 114.78,-442.32 135.85,22.18 281.11,60.94 430.83,116.13 -175.24,84.64 -365.41,192.95 -545.61,326.19" /><path
         id="path32"
         style="fill:#3e94cf;fill-opacity:1;fill-rule:nonzero;stroke:none"
         d="m 2371.07,1359.95 c -105.52,-61.23 -211.56,-114.55 -316.46,-160.46 52.24,-19.01 76.82,-27.74 117.3,-40.72 111.54,-35.71 220.1,-62.11 323.19,-80.77 3.28,-0.59 6.58,-1.2 9.8,-1.73 2.74,-0.41 5.39,-0.79 8.13,-1.26 5.11,13.01 10.13,26.34 15.08,39.76 32.96,93.75 72.57,237.45 103.22,413.29 -81.6,-58.66 -168.52,-114.94 -260.26,-168.11" /><path
         id="path34"
         style="fill:#3e94cf;fill-opacity:1;fill-rule:nonzero;stroke:none"
         d="m 1628.9,2640.02 c 105.35,61.05 211.14,114.35 315.9,160.11 -141.97,49.36 -292.64,93.34 -455.3,124.48 -0.79,0.18 -1.64,0.26 -2.4,0.38 -53,-135.18 -95.71,-289.83 -125.19,-458.03 83.53,60.44 172.71,118.42 266.99,173.06" /><path
         id="path36"
         style="fill:#3e94cf;fill-opacity:1;fill-rule:nonzero;stroke:none"
         d="m 1097.92,1745.73 c 8.23,-6.94 16.35,-13.83 24.73,-20.62 0.85,-0.68 1.75,-1.41 2.57,-2.08 67.08,-54.38 138.08,-106.44 211.65,-155.8 -16.97,142.79 -24.04,294.64 -19.6,452.05 4.39,156.41 19.92,306.76 44.64,447.68 -209.23,-151.23 -382.613,-317.34 -509.234,-482.25 69.961,-80.28 152.254,-160.75 245.244,-238.98" /><path
         id="path38"
         style="fill:#3e94cf;fill-opacity:1;fill-rule:nonzero;stroke:none"
         d="m 2645.06,2545.83 c -23.75,144.76 -60.72,290.86 -114.55,433.95 -138.14,-22.83 -286.06,-62.82 -438.34,-119.74 156.77,-66.5 293.81,-137.93 409.51,-213.52 51.09,-33.42 98.73,-67.15 143.38,-100.69" /></g></g></svg>