<?xml version="1.0" encoding="UTF-8"?>
<svg width="151px" height="158px" viewBox="0 0 151 158" version="1.1" xmlns="http://www.w3.org/2000/svg" xmlns:xlink="http://www.w3.org/1999/xlink">
    <!-- Generator: Sketch 49.1 (51147) - http://www.bohemiancoding.com/sketch -->
    <title>Group 22 Copy</title>
    <desc>Created with Sketch.</desc>
    <defs></defs>
    <g id="Page-1" stroke="none" stroke-width="1" fill="none" fill-rule="evenodd">
        <g id="Group-22-Copy" fill-rule="nonzero">
            <path d="M94.8211257,45.0794492 C99.6779376,47.8962139 104.279574,50.8777359 108.599563,53.9853421 C110.938499,67.424441 112.286378,84.408203 110.154442,102.08172 C109.450326,102.562747 108.729798,103.043775 108.005035,103.521623 C103.165694,106.716111 97.9875298,109.746901 92.5134253,112.574791 C88.3723764,114.715045 84.2016805,116.622732 80.0897492,118.359304 C77.544873,119.436848 74.9592321,120.434397 72.2539445,121.375261 C66.7078401,118.951053 61.1072065,116.127401 55.5298669,112.893181 C50.5385847,109.99854 45.8173019,106.926958 41.3951361,103.725054 C40.0864333,96.2595938 39.2642588,88.2945649 39.0318476,80.008498 C38.7967894,71.6694544 39.1710826,63.6249607 40.0694922,56.0604348 C52.0463458,48.0079945 65.3398434,41.2985106 78.0674011,36.578827 C83.6209172,39.0109819 89.2347861,41.8356931 94.8211257,45.0794492" id="path14" fill="#7CCCED" transform="translate(75.092033, 78.977044) scale(-1, 1) rotate(-180.000000) translate(-75.092033, -78.977044) "></path>
            <path d="M41.3951361,54.0879373 C42.9558382,62.9985982 45.2169504,71.1914263 48.0228261,78.3528005 C25.8802321,82.1178461 8.19760388,78.4476286 2.28827099,66.9872049 C-2.9479694,56.8353028 2.14723603,42.6820795 14.4357536,28.5399814 C21.1392023,37.2763493 30.3182803,46.0762891 41.3951361,54.0879373" id="path16" fill="#7CCCED" transform="translate(24.133218, 54.158486) scale(-1, 1) rotate(-180.000000) translate(-24.133218, -54.158486) "></path>
            <path d="M135.918733,129.394023 C130.656393,122.530907 123.864585,115.635475 115.825487,109.107171 C114.983195,96.9564623 112.988906,86.2038058 110.564206,78.5073682 C128.789162,76.8820467 142.910657,80.9517076 148.064998,90.9483883 C153.302456,101.10029 148.208998,115.253514 135.918733,129.394023" id="path18" fill="#7CCCED" transform="translate(130.337433, 103.777084) scale(-1, 1) rotate(-180.000000) translate(-130.337433, -103.777084) "></path>
            <path d="M103.262047,6.86149477 C102.547342,8.77183026 101.772815,10.6731597 100.940582,12.5607153 C100.457759,13.4761506 92.2497789,32.9699429 77.3955792,33.3979937 C67.2891328,33.6883054 57.9010965,24.9381636 50.9324662,10.6185939 C61.7112638,7.55177961 71.446064,4.17452261 80.0558669,0.518079024 C88.11773,3.53350599 95.94877,5.65203944 103.262047,6.86149477" id="path20" fill="#7CCCED" transform="translate(77.097256, 16.961540) scale(-1, 1) rotate(-180.000000) translate(-77.097256, -16.961540) "></path>
            <path d="M46.9152993,151.263458 C53.0808139,135.258703 62.3492035,125.057003 72.9628251,124.759221 C82.7484487,124.484379 91.8648975,132.677737 98.7609986,146.199003 C92.3535433,147.923231 81.7060395,151.623698 69.7238917,157.415628 C61.7975578,154.491851 54.1073409,152.438478 46.9152993,151.263458" id="path22" fill="#7CCCED" transform="translate(72.838149, 141.084073) scale(-1, 1) rotate(-180.000000) translate(-72.838149, -141.084073) "></path>
            <path d="M13.9038549,132.069642 C2.81725795,117.337915 -1.17979129,102.84935 4.69994756,92.6974477 C10.9490561,81.9108862 26.9988765,78.3889501 46.9152993,81.6422949 C44.2756586,88.4974644 42.2051341,96.417993 40.8387256,105.074896 C30.7105734,112.562076 21.2043198,121.540547 13.9038549,132.069642" id="path24" fill="#7CCCED" transform="translate(24.455743, 106.273492) scale(-1, 1) rotate(-180.000000) translate(-24.455743, -106.273492) "></path>
            <path d="M136.250673,25.8637742 C147.492705,40.6903298 151.570225,55.2906754 145.653004,65.5013815 C139.461548,76.1920554 123.651762,79.7510221 103.991045,76.6529517 C108.048447,68.5883269 110.947499,59.7979229 112.894141,50.7754814 C125.911816,40.3073091 133.202857,30.4997548 136.250673,25.8637742" id="path26" fill="#7CCCED" transform="translate(126.174950, 51.796080) scale(-1, 1) rotate(-180.000000) translate(-126.174950, -51.796080) "></path>
            <path d="M114.00008,98.4469968 C116.335839,84.8320156 116.686309,70.9770505 115.825487,58.58212 C123.864585,65.110424 130.656393,72.0058557 135.918733,78.8689717 C135.267558,79.6185903 134.597324,80.3687387 133.905914,81.116768 C129.196808,86.1325907 122.525706,92.2476774 114.00008,98.4469968" id="path28" fill="#1690C3" transform="translate(124.959406, 78.514558) scale(-1, 1) rotate(-180.000000) translate(-124.959406, -78.514558) "></path>
            <path d="M40.8387256,130.904688 C42.2051341,122.247785 44.2756586,114.327257 46.9152993,107.472087 C54.1073409,108.647108 61.7975578,110.70048 69.7238917,113.624257 C60.4465022,118.108195 50.3787028,123.846089 40.8387256,130.904688" id="path30" fill="#1690C3" transform="translate(55.281309, 119.188388) scale(-1, 1) rotate(-180.000000) translate(-55.281309, -119.188388) "></path>
            <path d="M94.8211257,119.063893 C89.2347861,115.820137 83.6209172,112.995425 78.0674011,110.563271 C80.8330415,109.556186 82.1343325,109.0937 84.2773862,108.406064 C90.1824309,106.51427 95.9297112,105.115689 101.387404,104.127146 C101.561051,104.09589 101.735756,104.063574 101.906226,104.035496 C102.051285,104.013776 102.191579,103.993645 102.336637,103.968746 C102.607166,104.657971 102.87293,105.364149 103.134988,106.075095 C104.879925,111.041649 106.97692,118.654384 108.599563,127.969786 C104.279574,124.862179 99.6779376,121.880657 94.8211257,119.063893" id="path32" fill="#1690C3" transform="translate(93.333482, 115.969266) scale(-1, 1) rotate(-180.000000) translate(-93.333482, -115.969266) "></path>
            <path d="M55.5298669,39.1322982 C61.1072065,42.3665185 66.7078401,45.1901702 72.2539445,47.6143785 C64.7379037,50.2293025 56.7612757,52.5592126 48.1498846,54.2089033 C48.1080612,54.2184391 48.0630613,54.2226772 48.0228261,54.2290344 C45.2169504,47.0676602 42.9558382,38.874832 41.3951361,29.9641712 C45.8173019,33.1660757 50.5385847,36.2376579 55.5298669,39.1322982" id="path34" fill="#1690C3" transform="translate(56.824540, 42.096603) scale(-1, 1) rotate(-180.000000) translate(-56.824540, -42.096603) "></path>
            <path d="M27.4192284,63.685354 C27.8549332,63.3176965 28.2848146,62.9526879 28.7284606,62.5929769 C28.7734604,62.5569528 28.8211074,62.5182799 28.864519,62.4827856 C32.4158047,59.6019192 36.1746192,56.8439584 40.0694922,54.2290344 C39.1710826,61.7935603 38.7967894,69.838054 39.0318476,78.1770976 C39.2642588,86.4631645 40.0864333,94.4281934 41.3951361,101.893653 C30.3182803,93.8820049 21.1392023,85.0820651 14.4357536,76.3456972 C18.1395624,72.0927373 22.4962402,67.8297119 27.4192284,63.685354" id="path36" fill="#1690C3" transform="translate(27.915445, 78.061344) scale(-1, 1) rotate(-180.000000) translate(-27.915445, -78.061344) "></path>
            <path d="M109.326444,27.0615844 C108.069094,34.7304742 106.111863,42.4703526 103.262047,50.0507715 C95.94877,48.8413161 88.11773,46.7227827 80.0558669,43.7073557 C88.3554353,40.1844131 95.6104767,36.400296 101.735756,32.3957963 C104.440514,30.6253189 106.962626,28.8384189 109.326444,27.0615844" id="path38" fill="#1690C3" transform="translate(94.691155, 38.556178) scale(-1, 1) rotate(-180.000000) translate(-94.691155, -38.556178) "></path>
        </g>
    </g>
</svg>