<?xml version="1.0" encoding="UTF-8"?>
<svg width="150px" height="157px" viewBox="0 0 150 157" version="1.1" xmlns="http://www.w3.org/2000/svg" xmlns:xlink="http://www.w3.org/1999/xlink">
    <!-- Generator: Sketch 49.1 (51147) - http://www.bohemiancoding.com/sketch -->
    <title>Group 38</title>
    <desc>Created with Sketch.</desc>
    <defs></defs>
    <g id="Page-1" stroke="none" stroke-width="1" fill="none" fill-rule="evenodd">
        <g id="Group-38" fill-rule="nonzero">
            <path d="M95.3114524,44.5006221 C100.168264,47.3173869 104.7699,50.2989088 109.08989,53.406515 C111.428826,66.845614 112.776705,83.8293759 110.644769,101.502893 C109.940653,101.98392 109.220125,102.464948 108.495362,102.942796 C103.656021,106.137284 98.4778566,109.168074 93.003752,111.995964 C88.8627031,114.136218 84.6920073,116.043905 80.5800759,117.780477 C78.0351997,118.858021 75.4495588,119.85557 72.7442712,120.796434 C67.1981668,118.372225 61.5975332,115.548574 56.0201936,112.314353 C51.0289115,109.419713 46.3076287,106.348131 41.8854628,103.146226 C40.5767601,95.6807667 39.7545856,87.7157379 39.5221743,79.4296709 C39.2871161,71.0906274 39.6614093,63.0461336 40.5598189,55.4816077 C52.5366726,47.4291675 65.8301701,40.7196836 78.5577278,36 C84.1112439,38.4321548 89.7251128,41.2568661 95.3114524,44.5006221" id="path14-copy" fill="#FFFFFF" transform="translate(75.582360, 78.398217) scale(-1, 1) rotate(-180.000000) translate(-75.582360, -78.398217) "></path>
            <path d="M41.6050715,53.5479559 C43.1657736,62.4586168 45.4268858,70.6514449 48.2327615,77.8128191 C26.0901675,81.5778647 8.40753928,77.9076472 2.49820639,66.4472235 C-2.738034,56.2953214 2.35717143,42.1420982 14.645689,28 C21.3491377,36.7363679 30.5282157,45.5363077 41.6050715,53.5479559" id="path16-copy" fill="#FFFFFF" transform="translate(24.343153, 53.618504) scale(-1, 1) rotate(-180.000000) translate(-24.343153, -53.618504) "></path>
            <path d="M135.808072,128.233877 C130.545732,121.370761 123.753924,114.47533 115.714826,107.947026 C114.872534,95.7963172 112.878245,85.0436607 110.453544,77.3472231 C128.678501,75.7219016 142.799996,79.7915625 147.954337,89.7882432 C153.191795,99.9401454 148.098337,114.093369 135.808072,128.233877" id="path18-copy" fill="#FFFFFF" transform="translate(130.226772, 102.616939) scale(-1, 1) rotate(-180.000000) translate(-130.226772, -102.616939) "></path>
            <path d="M103.783125,6.34341575 C103.068421,8.25375124 102.293893,10.1550807 101.46166,12.0426363 C100.978838,12.9580716 92.7708572,32.4518639 77.9166575,32.8799147 C67.8102112,33.1702263 58.4221748,24.4200845 51.4535445,10.1005148 C62.2323422,7.03370059 71.9671424,3.65644358 80.5769453,-1.8189894e-12 C88.6388083,3.01542696 96.4698484,5.13396041 103.783125,6.34341575" id="path20-copy" fill="#FFFFFF" transform="translate(77.618335, 16.443461) scale(-1, 1) rotate(-180.000000) translate(-77.618335, -16.443461) "></path>
            <path d="M47.4535445,150.51094 C53.6190591,134.506185 62.8874487,124.304485 73.5010703,124.006704 C83.2866939,123.731861 92.4031426,131.925219 99.2992437,145.446485 C92.8917885,147.170713 82.2442846,150.871181 70.2621369,156.66311 C62.3358029,153.739333 54.6455861,151.68596 47.4535445,150.51094" id="path22-copy" fill="#FFFFFF" transform="translate(73.376394, 140.331555) scale(-1, 1) rotate(-180.000000) translate(-73.376394, -140.331555) "></path>
            <path d="M14.3612135,130.592302 C3.27461656,115.860574 -0.722432684,101.372009 5.15730616,91.220107 C11.4064147,80.4335455 27.4562351,76.9116094 47.3726579,80.1649542 C44.7330172,87.0201237 42.6624927,94.9406523 41.2960842,103.597555 C31.1679321,111.084735 21.6616784,120.063206 14.3612135,130.592302" id="path24-copy" fill="#FFFFFF" transform="translate(24.913101, 104.796151) scale(-1, 1) rotate(-180.000000) translate(-24.913101, -104.796151) "></path>
            <path d="M136.713173,25 C147.955205,39.8265556 152.032725,54.4269012 146.115503,64.6376073 C139.924048,75.3282812 124.114262,78.8872479 104.453544,75.7891775 C108.510947,67.7245526 111.409998,58.9341486 113.356641,49.9117072 C126.374315,39.4435349 133.665357,29.6359806 136.713173,25" id="path26-copy" fill="#FFFFFF" transform="translate(126.637450, 50.932306) scale(-1, 1) rotate(-180.000000) translate(-126.637450, -50.932306) "></path>
            <path d="M114.453544,97.8648768 C116.789304,84.2498956 117.139773,70.3949305 116.278952,58 C124.31805,64.528304 131.109858,71.4237357 136.372198,78.2868517 C135.721023,79.0364703 135.050789,79.7866187 134.359379,80.534648 C129.650273,85.5504707 122.979171,91.6655574 114.453544,97.8648768" id="path28-copy" fill="#1690C3" transform="translate(125.412871, 77.932438) scale(-1, 1) rotate(-180.000000) translate(-125.412871, -77.932438) "></path>
            <path d="M41.4535445,129.432601 C42.819953,120.775698 44.8904774,112.85517 47.5301182,106 C54.7221597,107.175021 62.4123766,109.228393 70.3387105,112.15217 C61.061321,116.636108 50.9935216,122.374001 41.4535445,129.432601" id="path30-copy" fill="#1690C3" transform="translate(55.896128, 117.716301) scale(-1, 1) rotate(-180.000000) translate(-55.896128, -117.716301) "></path>
            <path d="M95.207269,118.095147 C89.6209295,114.851391 84.0070606,112.02668 78.4535445,109.594525 C81.2191849,108.58744 82.5204759,108.124954 84.6635296,107.437318 C90.5685743,105.545525 96.3158546,104.146943 101.773547,103.1584 C101.947194,103.127144 102.1219,103.094828 102.29237,103.06675 C102.437428,103.04503 102.577722,103.024899 102.72278,103 C102.993309,103.689225 103.259073,104.395403 103.521131,105.106349 C105.266068,110.072903 107.363063,117.685638 108.985707,127.00104 C104.665717,123.893434 100.064081,120.911912 95.207269,118.095147" id="path32-copy" fill="#1690C3" transform="translate(93.719626, 115.000520) scale(-1, 1) rotate(-180.000000) translate(-93.719626, -115.000520) "></path>
            <path d="M55.5882753,38.168127 C61.1656149,41.4023473 66.7662485,44.225999 72.3123529,46.6502073 C64.7963121,49.2651313 56.8196841,51.5950413 48.208293,53.2447321 C48.1664696,53.2542678 48.1214697,53.258506 48.0812345,53.2648632 C45.2753589,46.103489 43.0142466,37.9106608 41.4535445,29 C45.8757104,32.2019045 50.5969932,35.2734867 55.5882753,38.168127" id="path34-copy" fill="#1690C3" transform="translate(56.882949, 41.132432) scale(-1, 1) rotate(-180.000000) translate(-56.882949, -41.132432) "></path>
            <path d="M27.4370193,62.4563196 C27.8727241,62.0886621 28.3026054,61.7236535 28.7462514,61.3639425 C28.7912513,61.3279185 28.8388982,61.2892455 28.8823099,61.2537512 C32.4335955,58.3728848 36.19241,55.614924 40.087283,53 C39.1888734,60.5645259 38.8145802,68.6090197 39.0496385,76.9480632 C39.2820497,85.2341302 40.1042242,93.199159 41.4129269,100.664619 C30.3360711,92.6529705 21.1569931,83.8530307 14.4535445,75.1166628 C18.1573533,70.8637029 22.5140311,66.6006775 27.4370193,62.4563196" id="path36-copy" fill="#1690C3" transform="translate(27.933236, 76.832309) scale(-1, 1) rotate(-180.000000) translate(-27.933236, -76.832309) "></path>
            <path d="M109.724121,26 C108.466771,33.6688898 106.509541,41.4087682 103.659724,48.9891871 C96.3464476,47.7797318 88.5154075,45.6611983 80.4535445,42.6457714 C88.7531128,39.1228288 96.0081543,35.3387116 102.133434,31.3342119 C104.838192,29.5637346 107.360304,27.7768345 109.724121,26" id="path38-copy" fill="#1690C3" transform="translate(95.088833, 37.494594) scale(-1, 1) rotate(-180.000000) translate(-95.088833, -37.494594) "></path>
        </g>
    </g>
</svg>