<?xml version="1.0" encoding="UTF-8"?>
<svg width="615px" height="117px" viewBox="0 0 615 117" version="1.1" xmlns="http://www.w3.org/2000/svg" xmlns:xlink="http://www.w3.org/1999/xlink">
    <!-- Generator: Sketch 49.1 (51147) - http://www.bohemiancoding.com/sketch -->
    <title>title-pink</title>
    <desc>Created with Sketch.</desc>
    <defs></defs>
    <g id="Page-1" stroke="none" stroke-width="1" fill="none" fill-rule="evenodd">
        <path d="M0,114.938961 L4.08671861,114.938961 C17.623974,114.938961 21.9661125,111.107662 21.9661125,96.4210172 L21.9661125,23.8817619 L10.4722164,23.8817619 L10.4722164,96.4210172 C10.4722164,105.105294 9.83366665,107.276363 2.80961904,107.276363 L0,107.276363 L0,114.938961 Z M10.4722164,14.0480952 L21.9661125,14.0480952 L21.9661125,0 L10.4722164,0 L10.4722164,14.0480952 Z M59.9205979,94.2499479 C42.8074637,94.2499479 34.8894464,84.1608613 34.8894464,63.3441384 L34.8894464,53.2550519 C34.8894464,32.310619 42.6797538,22.3492424 59.7928879,22.3492424 C77.0337321,22.3492424 84.3131996,32.182909 84.3131996,54.1490216 L84.3131996,59.3851298 L46.7664724,59.3851298 L46.7664724,61.1730692 C46.7664724,76.6259739 49.0652516,86.0765107 59.9205979,86.0765107 C67.7109052,86.0765107 72.4361736,81.3512423 72.4361736,71.1344458 L72.4361736,70.495896 L83.2915199,70.495896 L83.2915199,71.1344458 C83.2915199,86.4596405 74.6072429,94.2499479 59.9205979,94.2499479 Z M46.7664724,51.2116926 L46.7664724,51.9779523 L72.4361736,51.9779523 L72.4361736,51.0839826 C72.4361736,37.8021471 70.2651044,30.3949696 59.9205979,30.3949696 C49.1929615,30.3949696 46.7664724,38.4406969 46.7664724,51.2116926 Z M143.978378,92.5897185 L156.493953,92.5897185 L127.248373,38.3129869 L153.556624,0 L141.424178,0 L110.262949,45.9755843 L110.262949,0 L98.2582131,0 L98.2582131,92.5897185 L110.262949,92.5897185 L110.262949,63.0887185 L120.096616,48.6574934 L143.978378,92.5897185 Z M163.798049,92.5897185 L175.291945,92.5897185 L175.291945,55.0429913 C175.291945,40.4840562 179.761794,30.9058095 188.701491,30.9058095 C196.874928,30.9058095 198.152027,38.057567 198.152027,50.4454328 L198.152027,92.5897185 L209.645923,92.5897185 L209.645923,46.6141341 C209.645923,29.8841298 205.431495,22.3492424 192.788209,22.3492424 C183.976222,22.3492424 177.846144,27.7130606 175.291945,34.9925281 L175.291945,23.8817619 L163.798049,23.8817619 L163.798049,92.5897185 Z M246.195599,86.0765107 C257.050946,86.0765107 258.838885,76.4982639 258.838885,60.5345194 L258.838885,56.0646709 C258.838885,40.1009263 257.050946,30.3949696 246.195599,30.3949696 C235.340253,30.3949696 233.424604,40.1009263 233.424604,56.0646709 L233.424604,60.5345194 C233.424604,76.4982639 235.340253,86.0765107 246.195599,86.0765107 Z M246.195599,94.2499479 C229.210175,94.2499479 221.547578,84.4162812 221.547578,63.2164285 L221.547578,53.3827618 C221.547578,32.182909 229.210175,22.3492424 246.195599,22.3492424 C262.925604,22.3492424 270.715911,32.182909 270.715911,53.3827618 L270.715911,63.2164285 C270.715911,84.4162812 262.925604,94.2499479 246.195599,94.2499479 Z M288.619933,92.5897185 L301.007799,92.5897185 L311.480015,35.5033679 L321.952232,92.5897185 L334.212388,92.5897185 L345.578574,23.8817619 L335.489487,23.8817619 L327.31605,78.9247531 L316.843834,23.8817619 L305.988487,23.8817619 L295.643981,78.9247531 L287.470544,23.8817619 L277.381457,23.8817619 L288.619933,92.5897185 Z M356.203128,92.5897185 L367.697025,92.5897185 L367.697025,0 L356.203128,0 L356.203128,92.5897185 Z M405.65151,94.2499479 C388.538376,94.2499479 380.620358,84.1608613 380.620358,63.3441384 L380.620358,53.2550519 C380.620358,32.310619 388.410666,22.3492424 405.5238,22.3492424 C422.764644,22.3492424 430.044112,32.182909 430.044112,54.1490216 L430.044112,59.3851298 L392.497384,59.3851298 L392.497384,61.1730692 C392.497384,76.6259739 394.796164,86.0765107 405.65151,86.0765107 C413.441817,86.0765107 418.167086,81.3512423 418.167086,71.1344458 L418.167086,70.495896 L429.022432,70.495896 L429.022432,71.1344458 C429.022432,86.4596405 420.338155,94.2499479 405.65151,94.2499479 Z M392.497384,51.2116926 L392.497384,51.9779523 L418.167086,51.9779523 L418.167086,51.0839826 C418.167086,37.8021471 415.996016,30.3949696 405.65151,30.3949696 C394.923874,30.3949696 392.497384,38.4406969 392.497384,51.2116926 Z M478.215393,34.8648181 L478.215393,0 L489.70929,0 L489.70929,92.5897185 L478.215393,92.5897185 L478.215393,81.7343722 C475.916614,88.7584198 469.403406,94.2499479 460.846839,94.2499479 C447.181874,94.2499479 440.285536,83.9054414 440.285536,63.3441384 L440.285536,53.2550519 C440.285536,32.6937489 447.181874,22.3492424 460.846839,22.3492424 C469.403406,22.3492424 475.916614,27.8407705 478.215393,34.8648181 Z M478.598523,58.3634501 C478.598523,40.7394761 473.490125,30.7780995 464.167298,30.7780995 C454.716762,30.7780995 452.162562,39.5900865 452.162562,56.4478008 L452.162562,60.1513895 C452.162562,77.0091038 454.716762,85.8210908 464.167298,85.8210908 C473.490125,85.8210908 478.598523,75.8597142 478.598523,58.3634501 Z M527.183153,116.59919 C511.602538,116.59919 504.323071,108.681173 504.323071,96.4210172 L504.323071,95.9101773 L515.433837,95.9101773 L515.433837,96.4210172 C515.433837,103.700485 518.882006,108.425753 527.310863,108.425753 C536.63369,108.425753 540.209568,104.083615 540.209568,91.1849089 L540.209568,78.2862033 C537.910789,85.4379609 532.163841,90.929489 523.607274,90.929489 C510.070019,90.929489 502.024291,80.3295626 502.024291,60.2790995 L502.024291,52.1056623 C502.024291,31.5443593 510.070019,22.3492424 523.607274,22.3492424 C532.163841,22.3492424 537.910789,27.9684805 540.209568,34.9925281 L540.209568,23.8817619 L551.703465,23.8817619 L551.703465,89.0138397 C551.703465,107.020944 545.062547,116.59919 527.183153,116.59919 Z M526.769805,82.5006319 C536.603472,82.5006319 541.32874,73.0500951 541.32874,57.0863506 C541.32874,40.2286363 536.603472,30.7780995 526.769805,30.7780995 C517.191559,30.7780995 514.509649,38.6961168 514.509649,54.9152813 L514.509649,56.8309306 C514.509649,72.9223852 517.191559,82.5006319 526.769805,82.5006319 Z M590.266282,94.2499479 C573.153148,94.2499479 565.23513,84.1608613 565.23513,63.3441384 L565.23513,53.2550519 C565.23513,32.310619 573.025438,22.3492424 590.138572,22.3492424 C607.379416,22.3492424 614.658884,32.182909 614.658884,54.1490216 L614.658884,59.3851298 L577.112156,59.3851298 L577.112156,61.1730692 C577.112156,76.6259739 579.410936,86.0765107 590.266282,86.0765107 C598.056589,86.0765107 602.781858,81.3512423 602.781858,71.1344458 L602.781858,70.495896 L613.637204,70.495896 L613.637204,71.1344458 C613.637204,86.4596405 604.952927,94.2499479 590.266282,94.2499479 Z M577.112156,51.2116926 L577.112156,51.9779523 L602.781858,51.9779523 L602.781858,51.0839826 C602.781858,37.8021471 600.610788,30.3949696 590.266282,30.3949696 C579.538646,30.3949696 577.112156,38.4406969 577.112156,51.2116926 Z" id="title-pink" fill="#F05B78"></path>
    </g>
</svg>