<?xml version="1.0" encoding="UTF-8"?>
<svg width="800px" height="184px" viewBox="0 0 800 184" version="1.1" xmlns="http://www.w3.org/2000/svg" xmlns:xlink="http://www.w3.org/1999/xlink">
    <!-- Generator: Sketch 49.1 (51147) - http://www.bohemiancoding.com/sketch -->
    <title>Group 28</title>
    <desc>Created with Sketch.</desc>
    <defs></defs>
    <g id="Page-1" stroke="none" stroke-width="1" fill="none" fill-rule="evenodd">
        <g id="Group-28">
            <g id="Group-22" fill-rule="nonzero">
                <path d="M94.8211257,45.0794492 C99.6779376,47.8962139 104.279574,50.8777359 108.599563,53.9853421 C110.938499,67.424441 112.286378,84.408203 110.154442,102.08172 C109.450326,102.562747 108.729798,103.043775 108.005035,103.521623 C103.165694,106.716111 97.9875298,109.746901 92.5134253,112.574791 C88.3723764,114.715045 84.2016805,116.622732 80.0897492,118.359304 C77.544873,119.436848 74.9592321,120.434397 72.2539445,121.375261 C66.7078401,118.951053 61.1072065,116.127401 55.5298669,112.893181 C50.5385847,109.99854 45.8173019,106.926958 41.3951361,103.725054 C40.0864333,96.2595938 39.2642588,88.2945649 39.0318476,80.008498 C38.7967894,71.6694544 39.1710826,63.6249607 40.0694922,56.0604348 C52.0463458,48.0079945 65.3398434,41.2985106 78.0674011,36.578827 C83.6209172,39.0109819 89.2347861,41.8356931 94.8211257,45.0794492" id="path14" fill="#7CCCED" transform="translate(75.092033, 78.977044) scale(-1, 1) rotate(-180.000000) translate(-75.092033, -78.977044) "></path>
                <path d="M41.3951361,54.0879373 C42.9558382,62.9985982 45.2169504,71.1914263 48.0228261,78.3528005 C25.8802321,82.1178461 8.19760388,78.4476286 2.28827099,66.9872049 C-2.9479694,56.8353028 2.14723603,42.6820795 14.4357536,28.5399814 C21.1392023,37.2763493 30.3182803,46.0762891 41.3951361,54.0879373" id="path16" fill="#7CCCED" transform="translate(24.133218, 54.158486) scale(-1, 1) rotate(-180.000000) translate(-24.133218, -54.158486) "></path>
                <path d="M135.918733,129.394023 C130.656393,122.530907 123.864585,115.635475 115.825487,109.107171 C114.983195,96.9564623 112.988906,86.2038058 110.564206,78.5073682 C128.789162,76.8820467 142.910657,80.9517076 148.064998,90.9483883 C153.302456,101.10029 148.208998,115.253514 135.918733,129.394023" id="path18" fill="#7CCCED" transform="translate(130.337433, 103.777084) scale(-1, 1) rotate(-180.000000) translate(-130.337433, -103.777084) "></path>
                <path d="M103.262047,6.86149477 C102.547342,8.77183026 101.772815,10.6731597 100.940582,12.5607153 C100.457759,13.4761506 92.2497789,32.9699429 77.3955792,33.3979937 C67.2891328,33.6883054 57.9010965,24.9381636 50.9324662,10.6185939 C61.7112638,7.55177961 71.446064,4.17452261 80.0558669,0.518079024 C88.11773,3.53350599 95.94877,5.65203944 103.262047,6.86149477" id="path20" fill="#7CCCED" transform="translate(77.097256, 16.961540) scale(-1, 1) rotate(-180.000000) translate(-77.097256, -16.961540) "></path>
                <path d="M46.9152993,151.263458 C53.0808139,135.258703 62.3492035,125.057003 72.9628251,124.759221 C82.7484487,124.484379 91.8648975,132.677737 98.7609986,146.199003 C92.3535433,147.923231 81.7060395,151.623698 69.7238917,157.415628 C61.7975578,154.491851 54.1073409,152.438478 46.9152993,151.263458" id="path22" fill="#7CCCED" transform="translate(72.838149, 141.084073) scale(-1, 1) rotate(-180.000000) translate(-72.838149, -141.084073) "></path>
                <path d="M13.9038549,132.069642 C2.81725795,117.337915 -1.17979129,102.84935 4.69994756,92.6974477 C10.9490561,81.9108862 26.9988765,78.3889501 46.9152993,81.6422949 C44.2756586,88.4974644 42.2051341,96.417993 40.8387256,105.074896 C30.7105734,112.562076 21.2043198,121.540547 13.9038549,132.069642" id="path24" fill="#7CCCED" transform="translate(24.455743, 106.273492) scale(-1, 1) rotate(-180.000000) translate(-24.455743, -106.273492) "></path>
                <path d="M136.250673,25.8637742 C147.492705,40.6903298 151.570225,55.2906754 145.653004,65.5013815 C139.461548,76.1920554 123.651762,79.7510221 103.991045,76.6529517 C108.048447,68.5883269 110.947499,59.7979229 112.894141,50.7754814 C125.911816,40.3073091 133.202857,30.4997548 136.250673,25.8637742" id="path26" fill="#7CCCED" transform="translate(126.174950, 51.796080) scale(-1, 1) rotate(-180.000000) translate(-126.174950, -51.796080) "></path>
                <path d="M114.00008,98.4469968 C116.335839,84.8320156 116.686309,70.9770505 115.825487,58.58212 C123.864585,65.110424 130.656393,72.0058557 135.918733,78.8689717 C135.267558,79.6185903 134.597324,80.3687387 133.905914,81.116768 C129.196808,86.1325907 122.525706,92.2476774 114.00008,98.4469968" id="path28" fill="#1690C3" transform="translate(124.959406, 78.514558) scale(-1, 1) rotate(-180.000000) translate(-124.959406, -78.514558) "></path>
                <path d="M40.8387256,130.904688 C42.2051341,122.247785 44.2756586,114.327257 46.9152993,107.472087 C54.1073409,108.647108 61.7975578,110.70048 69.7238917,113.624257 C60.4465022,118.108195 50.3787028,123.846089 40.8387256,130.904688" id="path30" fill="#1690C3" transform="translate(55.281309, 119.188388) scale(-1, 1) rotate(-180.000000) translate(-55.281309, -119.188388) "></path>
                <path d="M94.8211257,119.063893 C89.2347861,115.820137 83.6209172,112.995425 78.0674011,110.563271 C80.8330415,109.556186 82.1343325,109.0937 84.2773862,108.406064 C90.1824309,106.51427 95.9297112,105.115689 101.387404,104.127146 C101.561051,104.09589 101.735756,104.063574 101.906226,104.035496 C102.051285,104.013776 102.191579,103.993645 102.336637,103.968746 C102.607166,104.657971 102.87293,105.364149 103.134988,106.075095 C104.879925,111.041649 106.97692,118.654384 108.599563,127.969786 C104.279574,124.862179 99.6779376,121.880657 94.8211257,119.063893" id="path32" fill="#1690C3" transform="translate(93.333482, 115.969266) scale(-1, 1) rotate(-180.000000) translate(-93.333482, -115.969266) "></path>
                <path d="M55.5298669,39.1322982 C61.1072065,42.3665185 66.7078401,45.1901702 72.2539445,47.6143785 C64.7379037,50.2293025 56.7612757,52.5592126 48.1498846,54.2089033 C48.1080612,54.2184391 48.0630613,54.2226772 48.0228261,54.2290344 C45.2169504,47.0676602 42.9558382,38.874832 41.3951361,29.9641712 C45.8173019,33.1660757 50.5385847,36.2376579 55.5298669,39.1322982" id="path34" fill="#1690C3" transform="translate(56.824540, 42.096603) scale(-1, 1) rotate(-180.000000) translate(-56.824540, -42.096603) "></path>
                <path d="M27.4192284,63.685354 C27.8549332,63.3176965 28.2848146,62.9526879 28.7284606,62.5929769 C28.7734604,62.5569528 28.8211074,62.5182799 28.864519,62.4827856 C32.4158047,59.6019192 36.1746192,56.8439584 40.0694922,54.2290344 C39.1710826,61.7935603 38.7967894,69.838054 39.0318476,78.1770976 C39.2642588,86.4631645 40.0864333,94.4281934 41.3951361,101.893653 C30.3182803,93.8820049 21.1392023,85.0820651 14.4357536,76.3456972 C18.1395624,72.0927373 22.4962402,67.8297119 27.4192284,63.685354" id="path36" fill="#1690C3" transform="translate(27.915445, 78.061344) scale(-1, 1) rotate(-180.000000) translate(-27.915445, -78.061344) "></path>
                <path d="M109.326444,27.0615844 C108.069094,34.7304742 106.111863,42.4703526 103.262047,50.0507715 C95.94877,48.8413161 88.11773,46.7227827 80.0558669,43.7073557 C88.3554353,40.1844131 95.6104767,36.400296 101.735756,32.3957963 C104.440514,30.6253189 106.962626,28.8384189 109.326444,27.0615844" id="path38" fill="#1690C3" transform="translate(94.691155, 38.556178) scale(-1, 1) rotate(-180.000000) translate(-94.691155, -38.556178) "></path>
            </g>
            <path d="M184.615385,133.991592 L188.702103,133.991592 C202.239359,133.991592 206.581497,130.160294 206.581497,115.473649 L206.581497,42.9343934 L195.087601,42.9343934 L195.087601,115.473649 C195.087601,124.157926 194.449051,126.328995 187.425004,126.328995 L184.615385,126.328995 L184.615385,133.991592 Z M195.087601,33.1007268 L206.581497,33.1007268 L206.581497,19.0526316 L195.087601,19.0526316 L195.087601,33.1007268 Z M244.535983,113.302579 C227.422848,113.302579 219.504831,103.213493 219.504831,82.39677 L219.504831,72.3076834 C219.504831,51.3632506 227.295138,41.401874 244.408273,41.401874 C261.649117,41.401874 268.928584,51.2355406 268.928584,73.2016531 L268.928584,78.4377614 L231.381857,78.4377614 L231.381857,80.2257007 C231.381857,95.6786055 233.680636,105.129142 244.535983,105.129142 C252.32629,105.129142 257.051558,100.403874 257.051558,90.1870773 L257.051558,89.5485276 L267.906905,89.5485276 L267.906905,90.1870773 C267.906905,105.512272 259.222628,113.302579 244.535983,113.302579 Z M231.381857,70.2643241 L231.381857,71.0305839 L257.051558,71.0305839 L257.051558,70.1366142 C257.051558,56.8547787 254.880489,49.4476012 244.535983,49.4476012 C233.808346,49.4476012 231.381857,57.4933285 231.381857,70.2643241 Z M328.593762,111.64235 L341.109338,111.64235 L311.863758,57.3656185 L338.172009,19.0526316 L326.039563,19.0526316 L294.878334,65.0282159 L294.878334,19.0526316 L282.873598,19.0526316 L282.873598,111.64235 L294.878334,111.64235 L294.878334,82.1413501 L304.712,67.710125 L328.593762,111.64235 Z M348.413434,111.64235 L359.90733,111.64235 L359.90733,74.0956228 C359.90733,59.5366878 364.377178,49.9584411 373.316875,49.9584411 C381.490312,49.9584411 382.767412,57.1101986 382.767412,69.4980644 L382.767412,111.64235 L394.261308,111.64235 L394.261308,65.6667657 C394.261308,48.9367614 390.04688,41.401874 377.403594,41.401874 C368.591607,41.401874 362.461529,46.7656921 359.90733,54.0451597 L359.90733,42.9343934 L348.413434,42.9343934 L348.413434,111.64235 Z M430.810984,105.129142 C441.66633,105.129142 443.45427,95.5508955 443.45427,79.587151 L443.45427,75.1173025 C443.45427,59.1535579 441.66633,49.4476012 430.810984,49.4476012 C419.955638,49.4476012 418.039988,59.1535579 418.039988,75.1173025 L418.039988,79.587151 C418.039988,95.5508955 419.955638,105.129142 430.810984,105.129142 Z M430.810984,113.302579 C413.82556,113.302579 406.162962,103.468913 406.162962,82.26906 L406.162962,72.4353934 C406.162962,51.2355406 413.82556,41.401874 430.810984,41.401874 C447.540988,41.401874 455.331296,51.2355406 455.331296,72.4353934 L455.331296,82.26906 C455.331296,103.468913 447.540988,113.302579 430.810984,113.302579 Z M473.235318,111.64235 L485.623184,111.64235 L496.0954,54.5559995 L506.567616,111.64235 L518.827772,111.64235 L530.193958,42.9343934 L520.104872,42.9343934 L511.931435,97.9773847 L501.459218,42.9343934 L490.603872,42.9343934 L480.259365,97.9773847 L472.085928,42.9343934 L461.996842,42.9343934 L473.235318,111.64235 Z M540.818513,111.64235 L552.312409,111.64235 L552.312409,19.0526316 L540.818513,19.0526316 L540.818513,111.64235 Z M590.266895,113.302579 C573.15376,113.302579 565.235743,103.213493 565.235743,82.39677 L565.235743,72.3076834 C565.235743,51.3632506 573.02605,41.401874 590.139185,41.401874 C607.380029,41.401874 614.659496,51.2355406 614.659496,73.2016531 L614.659496,78.4377614 L577.112769,78.4377614 L577.112769,80.2257007 C577.112769,95.6786055 579.411548,105.129142 590.266895,105.129142 C598.057202,105.129142 602.78247,100.403874 602.78247,90.1870773 L602.78247,89.5485276 L613.637817,89.5485276 L613.637817,90.1870773 C613.637817,105.512272 604.95354,113.302579 590.266895,113.302579 Z M577.112769,70.2643241 L577.112769,71.0305839 L602.78247,71.0305839 L602.78247,70.1366142 C602.78247,56.8547787 600.611401,49.4476012 590.266895,49.4476012 C579.539258,49.4476012 577.112769,57.4933285 577.112769,70.2643241 Z M662.830778,53.9174497 L662.830778,19.0526316 L674.324674,19.0526316 L674.324674,111.64235 L662.830778,111.64235 L662.830778,100.787004 C660.531999,107.811051 654.018791,113.302579 645.462224,113.302579 C631.797259,113.302579 624.900921,102.958073 624.900921,82.39677 L624.900921,72.3076834 C624.900921,51.7463804 631.797259,41.401874 645.462224,41.401874 C654.018791,41.401874 660.531999,46.8934021 662.830778,53.9174497 Z M663.213908,77.4160817 C663.213908,59.7921077 658.10551,49.8307311 648.782683,49.8307311 C639.332146,49.8307311 636.777947,58.6427181 636.777947,75.5004324 L636.777947,79.2040211 C636.777947,96.0617353 639.332146,104.873722 648.782683,104.873722 C658.10551,104.873722 663.213908,94.9123457 663.213908,77.4160817 Z M711.798538,135.651822 C696.217923,135.651822 688.938455,127.733805 688.938455,115.473649 L688.938455,114.962809 L700.049222,114.962809 L700.049222,115.473649 C700.049222,122.753116 703.49739,127.478385 711.926248,127.478385 C721.249074,127.478385 724.824953,123.136246 724.824953,110.237541 L724.824953,97.3388349 C722.526174,104.490592 716.779226,109.982121 708.222659,109.982121 C694.685403,109.982121 686.639676,99.3821942 686.639676,79.331731 L686.639676,71.1582938 C686.639676,50.5969908 694.685403,41.401874 708.222659,41.401874 C716.779226,41.401874 722.526174,47.0211121 724.824953,54.0451597 L724.824953,42.9343934 L736.318849,42.9343934 L736.318849,108.066471 C736.318849,126.073575 729.677931,135.651822 711.798538,135.651822 Z M711.38519,101.553263 C721.218857,101.553263 725.944125,92.1027267 725.944125,76.1389821 C725.944125,59.2812679 721.218857,49.8307311 711.38519,49.8307311 C701.806943,49.8307311 699.125034,57.7487484 699.125034,73.9679129 L699.125034,75.8835622 C699.125034,91.9750167 701.806943,101.553263 711.38519,101.553263 Z M774.881667,113.302579 C757.768532,113.302579 749.850515,103.213493 749.850515,82.39677 L749.850515,72.3076834 C749.850515,51.3632506 757.640822,41.401874 774.753957,41.401874 C791.994801,41.401874 799.274268,51.2355406 799.274268,73.2016531 L799.274268,78.4377614 L761.727541,78.4377614 L761.727541,80.2257007 C761.727541,95.6786055 764.02632,105.129142 774.881667,105.129142 C782.671974,105.129142 787.397242,100.403874 787.397242,90.1870773 L787.397242,89.5485276 L798.252589,89.5485276 L798.252589,90.1870773 C798.252589,105.512272 789.568312,113.302579 774.881667,113.302579 Z M761.727541,70.2643241 L761.727541,71.0305839 L787.397242,71.0305839 L787.397242,70.1366142 C787.397242,56.8547787 785.226173,49.4476012 774.881667,49.4476012 C764.15403,49.4476012 761.727541,57.4933285 761.727541,70.2643241 Z" id="jeKnowledge" fill="#1690C3"></path>
            <path d="M247.244838,172.898785 L247.244838,132.979757 L251.704757,132.979757 L266.846457,168.163563 L266.846457,132.979757 L270.205162,132.979757 L270.205162,172.898785 L265.745243,172.898785 L250.603542,137.71498 L250.603542,172.898785 L247.244838,172.898785 Z M284.73879,173.614575 C279.232718,173.614575 277.580896,170.035628 277.580896,162.877733 L277.580896,143.276113 L280.9396,143.276113 L280.9396,161.9417 C280.9396,167.668016 281.71045,170.916599 285.564701,170.916599 C289.474013,170.916599 292.116928,166.952227 292.116928,159.684211 L292.116928,143.276113 L295.475633,143.276113 L295.475633,172.898785 L292.22705,172.898785 L292.22705,167.723077 C291.291017,170.861538 288.648102,173.614575 284.73879,173.614575 Z M302.796306,172.898785 L302.796306,143.276113 L306.15501,143.276113 L306.15501,149.332794 C306.980921,146.084211 309.128289,143.276113 313.202783,143.276113 L314.303998,143.276113 L314.303998,146.579757 L312.707237,146.579757 C308.522621,146.579757 306.15501,149.387854 306.15501,156.821053 L306.15501,172.898785 L302.796306,172.898785 Z M324.377707,172.898785 C319.422242,172.898785 318.321027,171.191903 318.321027,166.126316 L318.321027,145.808907 L314.246533,145.808907 L314.246533,143.276113 L318.321027,143.276113 L318.321027,136.063158 L321.679732,136.063158 L321.679732,143.276113 L326.80038,143.276113 L326.80038,145.808907 L321.679732,145.808907 L321.679732,165.630769 C321.679732,169.650202 322.120218,170.365992 325.478922,170.365992 L326.80038,170.365992 L326.80038,172.898785 L324.377707,172.898785 Z M337.975304,173.614575 C332.469231,173.614575 330.817409,170.035628 330.817409,162.877733 L330.817409,143.276113 L334.176113,143.276113 L334.176113,161.9417 C334.176113,167.668016 334.946964,170.916599 338.801215,170.916599 C342.710526,170.916599 345.353441,166.952227 345.353441,159.684211 L345.353441,143.276113 L348.712146,143.276113 L348.712146,172.898785 L345.463563,172.898785 L345.463563,167.723077 C344.52753,170.861538 341.884615,173.614575 337.975304,173.614575 Z M356.032819,172.898785 L356.032819,143.276113 L359.391523,143.276113 L359.391523,149.332794 C360.217434,146.084211 362.364803,143.276113 366.439297,143.276113 L367.540511,143.276113 L367.540511,146.579757 L365.94375,146.579757 C361.759135,146.579757 359.391523,149.387854 359.391523,156.821053 L359.391523,172.898785 L356.032819,172.898785 Z M370.951872,172.898785 L370.951872,143.276113 L374.310577,143.276113 L374.310577,172.898785 L370.951872,172.898785 Z M370.951872,138.595951 L370.951872,132.979757 L374.310577,132.979757 L374.310577,138.595951 L370.951872,138.595951 Z M381.63125,172.898785 L381.63125,143.276113 L384.989954,143.276113 L384.989954,148.617004 C385.981048,145.478543 388.679023,142.725506 392.643396,142.725506 C398.149469,142.725506 399.856351,146.139271 399.856351,153.352227 L399.856351,172.898785 L396.497647,172.898785 L396.497647,154.398381 C396.497647,148.561943 395.671736,145.423482 391.707363,145.423482 C387.742991,145.423482 384.989954,149.387854 384.989954,156.65587 L384.989954,172.898785 L381.63125,172.898785 Z M415.381073,183.250202 C408.443421,183.250202 406.351113,179.120648 406.351113,174.77085 L406.351113,174.495547 L409.654757,174.495547 L409.654757,174.77085 C409.654757,178.239676 411.086336,180.662348 415.381073,180.662348 C419.896053,180.662348 421.657996,178.349798 421.657996,172.788664 L421.657996,166.401619 C420.721964,169.760324 417.968927,172.293117 414.114676,172.293117 C408.443421,172.293117 405.249899,167.502834 405.249899,158.8583 L405.249899,155.334413 C405.249899,146.579757 408.443421,142.725506 414.114676,142.725506 C417.968927,142.725506 420.721964,145.31336 421.657996,148.617004 L421.657996,143.276113 L425.071761,143.276113 L425.071761,172.017814 C425.071761,178.955466 422.649089,183.250202 415.381073,183.250202 Z M414.720344,169.650202 C419.015081,169.650202 421.823178,166.016194 421.823178,157.591903 C421.823178,149.002429 419.015081,145.368421 414.720344,145.368421 C410.205364,145.368421 408.718725,149.002429 408.718725,156.710931 L408.718725,157.37166 C408.718725,165.080162 410.205364,169.650202 414.720344,169.650202 Z M443.73254,172.898785 L443.73254,132.979757 L463.168978,132.979757 L463.168978,135.953036 L447.256427,135.953036 L447.256427,150.709312 L461.84752,150.709312 L461.84752,153.682591 L447.256427,153.682591 L447.256427,169.925506 L463.168978,169.925506 L463.168978,172.898785 L443.73254,172.898785 Z M464.598153,172.898785 L472.802201,157.646964 L465.203821,143.276113 L468.727707,143.276113 L474.564145,154.34332 L480.510703,143.276113 L483.704226,143.276113 L476.160906,157.37166 L484.420015,172.898785 L480.896129,172.898785 L474.398963,160.675304 L467.846736,172.898785 L464.598153,172.898785 Z M496.861336,173.614575 C489.978745,173.614575 487.005466,169.209717 487.005466,160.179757 L487.005466,156.160324 C487.005466,147.185425 489.978745,142.725506 496.861336,142.725506 C502.312348,142.725506 505.891296,146.304453 505.891296,152.636437 L505.891296,152.911741 L502.642713,152.911741 L502.642713,152.636437 C502.642713,148.121457 500.825708,145.31336 496.861336,145.31336 C491.465385,145.31336 490.474291,149.883401 490.474291,156.986235 L490.474291,159.408907 C490.474291,166.45668 491.465385,170.97166 496.861336,170.97166 C500.825708,170.97166 502.642713,168.273684 502.642713,163.703644 L502.642713,163.42834 L505.891296,163.42834 L505.891296,163.703644 C505.891296,170.035628 502.312348,173.614575 496.861336,173.614575 Z M521.085653,173.614575 C514.148001,173.614575 510.899418,169.154656 510.899418,160.234818 L510.899418,156.105263 C510.899418,147.185425 513.982819,142.725506 520.86541,142.725506 C527.69294,142.725506 530.556098,146.965182 530.556098,155.88502 L530.556098,158.197571 L514.368244,158.197571 L514.368244,159.408907 C514.368244,166.45668 515.744762,170.97166 521.085653,170.97166 C525.050025,170.97166 527.142333,168.383806 527.142333,163.923887 L527.142333,163.648583 L530.390916,163.648583 L530.390916,163.923887 C530.390916,170.25587 526.867029,173.614575 521.085653,173.614575 Z M514.368244,155.609717 L514.368244,155.774899 L527.087272,155.774899 L527.087272,155.499595 C527.087272,149.112551 526.041118,145.31336 520.920471,145.31336 C515.57958,145.31336 514.368244,149.553036 514.368244,155.609717 Z M536.28001,172.898785 L536.28001,132.979757 L539.638715,132.979757 L539.638715,172.898785 L536.28001,172.898785 Z M546.959388,172.898785 L546.959388,132.979757 L550.318092,132.979757 L550.318092,172.898785 L546.959388,172.898785 Z M566.503543,173.614575 C559.565891,173.614575 556.317308,169.154656 556.317308,160.234818 L556.317308,156.105263 C556.317308,147.185425 559.400708,142.725506 566.2833,142.725506 C573.11083,142.725506 575.973988,146.965182 575.973988,155.88502 L575.973988,158.197571 L559.786134,158.197571 L559.786134,159.408907 C559.786134,166.45668 561.162652,170.97166 566.503543,170.97166 C570.467915,170.97166 572.560223,168.383806 572.560223,163.923887 L572.560223,163.648583 L575.808806,163.648583 L575.808806,163.923887 C575.808806,170.25587 572.284919,173.614575 566.503543,173.614575 Z M559.786134,155.609717 L559.786134,155.774899 L572.505162,155.774899 L572.505162,155.499595 C572.505162,149.112551 571.459008,145.31336 566.33836,145.31336 C560.99747,145.31336 559.786134,149.553036 559.786134,155.609717 Z M581.6979,172.898785 L581.6979,143.276113 L585.056604,143.276113 L585.056604,148.617004 C586.047697,145.478543 588.745673,142.725506 592.710046,142.725506 C598.216118,142.725506 599.923001,146.139271 599.923001,153.352227 L599.923001,172.898785 L596.564297,172.898785 L596.564297,154.398381 C596.564297,148.561943 595.738386,145.423482 591.774013,145.423482 C587.809641,145.423482 585.056604,149.387854 585.056604,156.65587 L585.056604,172.898785 L581.6979,172.898785 Z M615.172419,173.614575 C608.289828,173.614575 605.316549,169.209717 605.316549,160.179757 L605.316549,156.160324 C605.316549,147.185425 608.289828,142.725506 615.172419,142.725506 C620.623431,142.725506 624.202379,146.304453 624.202379,152.636437 L624.202379,152.911741 L620.953796,152.911741 L620.953796,152.636437 C620.953796,148.121457 619.136791,145.31336 615.172419,145.31336 C609.776468,145.31336 608.785374,149.883401 608.785374,156.986235 L608.785374,159.408907 C608.785374,166.45668 609.776468,170.97166 615.172419,170.97166 C619.136791,170.97166 620.953796,168.273684 620.953796,163.703644 L620.953796,163.42834 L624.202379,163.42834 L624.202379,163.703644 C624.202379,170.035628 620.623431,173.614575 615.172419,173.614575 Z M639.396736,173.614575 C632.459084,173.614575 629.210501,169.154656 629.210501,160.234818 L629.210501,156.105263 C629.210501,147.185425 632.293902,142.725506 639.176493,142.725506 C646.004023,142.725506 648.867181,146.965182 648.867181,155.88502 L648.867181,158.197571 L632.679327,158.197571 L632.679327,159.408907 C632.679327,166.45668 634.055845,170.97166 639.396736,170.97166 C643.361108,170.97166 645.453416,168.383806 645.453416,163.923887 L645.453416,163.648583 L648.701999,163.648583 L648.701999,163.923887 C648.701999,170.25587 645.178112,173.614575 639.396736,173.614575 Z M632.679327,155.609717 L632.679327,155.774899 L645.398355,155.774899 L645.398355,155.499595 C645.398355,149.112551 644.352201,145.31336 639.231554,145.31336 C633.890663,145.31336 632.679327,149.553036 632.679327,155.609717 Z" id="Nurturing-Excellence" fill="#1690C3"></path>
        </g>
    </g>
</svg>