<?xml version="1.0" encoding="UTF-8"?>
<svg width="799px" height="184px" viewBox="0 0 799 184" version="1.1" xmlns="http://www.w3.org/2000/svg" xmlns:xlink="http://www.w3.org/1999/xlink">
    <!-- Generator: Sketch 49.1 (51147) - http://www.bohemiancoding.com/sketch -->
    <title>Group 23</title>
    <desc>Created with Sketch.</desc>
    <defs></defs>
    <g id="Page-1" stroke="none" stroke-width="1" fill="none" fill-rule="evenodd">
        <g id="Group-23">
            <path d="M94.8579079,44.5006221 C99.7147198,47.3173869 104.316356,50.2989088 108.636345,53.406515 C110.975281,66.845614 112.32316,83.8293759 110.191224,101.502893 C109.487108,101.98392 108.76658,102.464948 108.041817,102.942796 C103.202476,106.137284 98.0243121,109.168074 92.5502075,111.995964 C88.4091587,114.136218 84.2384628,116.043905 80.1265314,117.780477 C77.5816552,118.858021 74.9960143,119.85557 72.2907267,120.796434 C66.7446223,118.372225 61.1439887,115.548574 55.5666491,112.314353 C50.575367,109.419713 45.8540842,106.348131 41.4319183,103.146226 C40.1232156,95.6807667 39.3010411,87.7157379 39.0686299,79.4296709 C38.8335716,71.0906274 39.2078648,63.0461336 40.1062744,55.4816077 C52.0831281,47.4291675 65.3766256,40.7196836 78.1041834,36 C83.6576995,38.4321548 89.2715683,41.2568661 94.8579079,44.5006221" id="path14" fill="#FFFFFF" fill-rule="nonzero" transform="translate(75.128815, 78.398217) scale(-1, 1) rotate(-180.000000) translate(-75.128815, -78.398217) "></path>
            <path d="M41.151527,53.5479559 C42.7122291,62.4586168 44.9733414,70.6514449 47.779217,77.8128191 C25.636623,81.5778647 7.9539948,77.9076472 2.0446619,66.4472235 C-3.19157849,56.2953214 1.90362694,42.1420982 14.1921445,28 C20.8955932,36.7363679 30.0746712,45.5363077 41.151527,53.5479559" id="path16" fill="#FFFFFF" fill-rule="nonzero" transform="translate(23.889608, 53.618504) scale(-1, 1) rotate(-180.000000) translate(-23.889608, -53.618504) "></path>
            <path d="M135.354527,128.233877 C130.092187,121.370761 123.30038,114.47533 115.261282,107.947026 C114.418989,95.7963172 112.4247,85.0436607 110,77.3472231 C128.224956,75.7219016 142.346452,79.7915625 147.500792,89.7882432 C152.738251,99.9401454 147.644792,114.093369 135.354527,128.233877" id="path18" fill="#FFFFFF" fill-rule="nonzero" transform="translate(129.773228, 102.616939) scale(-1, 1) rotate(-180.000000) translate(-129.773228, -102.616939) "></path>
            <path d="M103.32958,6.34341575 C102.614876,8.25375124 101.840349,10.1550807 101.008115,12.0426363 C100.525293,12.9580716 92.3173127,32.4518639 77.463113,32.8799147 C67.3566667,33.1702263 57.9686304,24.4200845 51,10.1005148 C61.7787977,7.03370059 71.5135979,3.65644358 80.1234008,-1.8189894e-12 C88.1852638,3.01542696 96.0163039,5.13396041 103.32958,6.34341575" id="path20" fill="#FFFFFF" fill-rule="nonzero" transform="translate(77.164790, 16.443461) scale(-1, 1) rotate(-180.000000) translate(-77.164790, -16.443461) "></path>
            <path d="M47,150.51094 C53.1655146,134.506185 62.4339042,124.304485 73.0475258,124.006704 C82.8331494,123.731861 91.9495981,131.925219 98.8456993,145.446485 C92.438244,147.170713 81.7907401,150.871181 69.8085924,156.66311 C61.8822584,153.739333 54.1920416,151.68596 47,150.51094" id="path22" fill="#FFFFFF" fill-rule="nonzero" transform="translate(72.922850, 140.331555) scale(-1, 1) rotate(-180.000000) translate(-72.922850, -140.331555) "></path>
            <path d="M13.907669,130.592302 C2.82107207,115.860574 -1.17597717,101.372009 4.70376168,91.220107 C10.9528702,80.4335455 27.0026906,76.9116094 46.9191134,80.1649542 C44.2794727,87.0201237 42.2089482,94.9406523 40.8425398,103.597555 C30.7143876,111.084735 21.2081339,120.063206 13.907669,130.592302" id="path24" fill="#FFFFFF" fill-rule="nonzero" transform="translate(24.459557, 104.796151) scale(-1, 1) rotate(-180.000000) translate(-24.459557, -104.796151) "></path>
            <path d="M136.259629,25 C147.50166,39.8265556 151.57918,54.4269012 145.661959,64.6376073 C139.470503,75.3282812 123.660718,78.8872479 104,75.7891775 C108.057402,67.7245526 110.956454,58.9341486 112.903096,49.9117072 C125.920771,39.4435349 133.211812,29.6359806 136.259629,25" id="path26" fill="#FFFFFF" fill-rule="nonzero" transform="translate(126.183905, 50.932306) scale(-1, 1) rotate(-180.000000) translate(-126.183905, -50.932306) "></path>
            <path d="M114,97.8648768 C116.335759,84.2498956 116.686229,70.3949305 115.825407,58 C123.864506,64.528304 130.656313,71.4237357 135.918653,78.2868517 C135.267478,79.0364703 134.597245,79.7866187 133.905835,80.534648 C129.196728,85.5504707 122.525627,91.6655574 114,97.8648768" id="path28" fill="#1690C3" fill-rule="nonzero" transform="translate(124.959327, 77.932438) scale(-1, 1) rotate(-180.000000) translate(-124.959327, -77.932438) "></path>
            <path d="M41,129.432601 C42.3664085,120.775698 44.4369329,112.85517 47.0765737,106 C54.2686153,107.175021 61.9588321,109.228393 69.8851661,112.15217 C60.6077765,116.636108 50.5399771,122.374001 41,129.432601" id="path30" fill="#1690C3" fill-rule="nonzero" transform="translate(55.442583, 117.716301) scale(-1, 1) rotate(-180.000000) translate(-55.442583, -117.716301) "></path>
            <path d="M94.7537245,118.095147 C89.167385,114.851391 83.5535161,112.02668 78,109.594525 C80.7656404,108.58744 82.0669314,108.124954 84.2099851,107.437318 C90.1150298,105.545525 95.8623101,104.146943 101.320003,103.1584 C101.49365,103.127144 101.668355,103.094828 101.838825,103.06675 C101.983884,103.04503 102.124177,103.024899 102.269236,103 C102.539765,103.689225 102.805529,104.395403 103.067587,105.106349 C104.812524,110.072903 106.909519,117.685638 108.532162,127.00104 C104.212172,123.893434 99.6105364,120.911912 94.7537245,118.095147" id="path32" fill="#1690C3" fill-rule="nonzero" transform="translate(93.266081, 115.000520) scale(-1, 1) rotate(-180.000000) translate(-93.266081, -115.000520) "></path>
            <path d="M55.1347308,38.168127 C60.7120704,41.4023473 66.312704,44.225999 71.8588084,46.6502073 C64.3427676,49.2651313 56.3661396,51.5950413 47.7547485,53.2447321 C47.7129251,53.2542678 47.6679252,53.258506 47.62769,53.2648632 C44.8218144,46.103489 42.5607021,37.9106608 41,29 C45.4221659,32.2019045 50.1434487,35.2734867 55.1347308,38.168127" id="path34" fill="#1690C3" fill-rule="nonzero" transform="translate(56.429404, 41.132432) scale(-1, 1) rotate(-180.000000) translate(-56.429404, -41.132432) "></path>
            <path d="M26.9834748,62.4563196 C27.4191796,62.0886621 27.8490609,61.7236535 28.2927069,61.3639425 C28.3377068,61.3279185 28.3853538,61.2892455 28.4287654,61.2537512 C31.980051,58.3728848 35.7388655,55.614924 39.6337386,53 C38.7353289,60.5645259 38.3610357,68.6090197 38.596094,76.9480632 C38.8285052,85.2341302 39.6506797,93.199159 40.9593824,100.664619 C29.8825266,92.6529705 20.7034486,83.8530307 14,75.1166628 C17.7038088,70.8637029 22.0604866,66.6006775 26.9834748,62.4563196" id="path36" fill="#1690C3" fill-rule="nonzero" transform="translate(27.479691, 76.832309) scale(-1, 1) rotate(-180.000000) translate(-27.479691, -76.832309) "></path>
            <path d="M109.270577,26 C108.013227,33.6688898 106.055996,41.4087682 103.20618,48.9891871 C95.8929031,47.7797318 88.061863,45.6611983 80,42.6457714 C88.2995683,39.1228288 95.5546098,35.3387116 101.679889,31.3342119 C104.384647,29.5637346 106.906759,27.7768345 109.270577,26" id="path38" fill="#1690C3" fill-rule="nonzero" transform="translate(94.635288, 37.494594) scale(-1, 1) rotate(-180.000000) translate(-94.635288, -37.494594) "></path>
            <path d="M184,133.938961 L188.086719,133.938961 C201.623974,133.938961 205.966113,130.107662 205.966113,115.421017 L205.966113,42.8817619 L194.472216,42.8817619 L194.472216,115.421017 C194.472216,124.105294 193.833667,126.276363 186.809619,126.276363 L184,126.276363 L184,133.938961 Z M194.472216,33.0480952 L205.966113,33.0480952 L205.966113,19 L194.472216,19 L194.472216,33.0480952 Z M243.920598,113.249948 C226.807464,113.249948 218.889446,103.160861 218.889446,82.3441384 L218.889446,72.2550519 C218.889446,51.310619 226.679754,41.3492424 243.792888,41.3492424 C261.033732,41.3492424 268.3132,51.182909 268.3132,73.1490216 L268.3132,78.3851298 L230.766472,78.3851298 L230.766472,80.1730692 C230.766472,95.6259739 233.065252,105.076511 243.920598,105.076511 C251.710905,105.076511 256.436174,100.351242 256.436174,90.1344458 L256.436174,89.495896 L267.29152,89.495896 L267.29152,90.1344458 C267.29152,105.459641 258.607243,113.249948 243.920598,113.249948 Z M230.766472,70.2116926 L230.766472,70.9779523 L256.436174,70.9779523 L256.436174,70.0839826 C256.436174,56.8021471 254.265104,49.3949696 243.920598,49.3949696 C233.192962,49.3949696 230.766472,57.4406969 230.766472,70.2116926 Z M327.978378,111.589718 L340.493953,111.589718 L311.248373,57.3129869 L337.556624,19 L325.424178,19 L294.262949,64.9755843 L294.262949,19 L282.258213,19 L282.258213,111.589718 L294.262949,111.589718 L294.262949,82.0887185 L304.096616,67.6574934 L327.978378,111.589718 Z M347.798049,111.589718 L359.291945,111.589718 L359.291945,74.0429913 C359.291945,59.4840562 363.761794,49.9058095 372.701491,49.9058095 C380.874928,49.9058095 382.152027,57.057567 382.152027,69.4454328 L382.152027,111.589718 L393.645923,111.589718 L393.645923,65.6141341 C393.645923,48.8841298 389.431495,41.3492424 376.788209,41.3492424 C367.976222,41.3492424 361.846144,46.7130606 359.291945,53.9925281 L359.291945,42.8817619 L347.798049,42.8817619 L347.798049,111.589718 Z M430.195599,105.076511 C441.050946,105.076511 442.838885,95.4982639 442.838885,79.5345194 L442.838885,75.0646709 C442.838885,59.1009263 441.050946,49.3949696 430.195599,49.3949696 C419.340253,49.3949696 417.424604,59.1009263 417.424604,75.0646709 L417.424604,79.5345194 C417.424604,95.4982639 419.340253,105.076511 430.195599,105.076511 Z M430.195599,113.249948 C413.210175,113.249948 405.547578,103.416281 405.547578,82.2164285 L405.547578,72.3827618 C405.547578,51.182909 413.210175,41.3492424 430.195599,41.3492424 C446.925604,41.3492424 454.715911,51.182909 454.715911,72.3827618 L454.715911,82.2164285 C454.715911,103.416281 446.925604,113.249948 430.195599,113.249948 Z M472.619933,111.589718 L485.007799,111.589718 L495.480015,54.5033679 L505.952232,111.589718 L518.212388,111.589718 L529.578574,42.8817619 L519.489487,42.8817619 L511.31605,97.9247531 L500.843834,42.8817619 L489.988487,42.8817619 L479.643981,97.9247531 L471.470544,42.8817619 L461.381457,42.8817619 L472.619933,111.589718 Z M540.203128,111.589718 L551.697025,111.589718 L551.697025,19 L540.203128,19 L540.203128,111.589718 Z M589.65151,113.249948 C572.538376,113.249948 564.620358,103.160861 564.620358,82.3441384 L564.620358,72.2550519 C564.620358,51.310619 572.410666,41.3492424 589.5238,41.3492424 C606.764644,41.3492424 614.044112,51.182909 614.044112,73.1490216 L614.044112,78.3851298 L576.497384,78.3851298 L576.497384,80.1730692 C576.497384,95.6259739 578.796164,105.076511 589.65151,105.076511 C597.441817,105.076511 602.167086,100.351242 602.167086,90.1344458 L602.167086,89.495896 L613.022432,89.495896 L613.022432,90.1344458 C613.022432,105.459641 604.338155,113.249948 589.65151,113.249948 Z M576.497384,70.2116926 L576.497384,70.9779523 L602.167086,70.9779523 L602.167086,70.0839826 C602.167086,56.8021471 599.996016,49.3949696 589.65151,49.3949696 C578.923874,49.3949696 576.497384,57.4406969 576.497384,70.2116926 Z M662.215393,53.8648181 L662.215393,19 L673.70929,19 L673.70929,111.589718 L662.215393,111.589718 L662.215393,100.734372 C659.916614,107.75842 653.403406,113.249948 644.846839,113.249948 C631.181874,113.249948 624.285536,102.905441 624.285536,82.3441384 L624.285536,72.2550519 C624.285536,51.6937489 631.181874,41.3492424 644.846839,41.3492424 C653.403406,41.3492424 659.916614,46.8407705 662.215393,53.8648181 Z M662.598523,77.3634501 C662.598523,59.7394761 657.490125,49.7780995 648.167298,49.7780995 C638.716762,49.7780995 636.162562,58.5900865 636.162562,75.4478008 L636.162562,79.1513895 C636.162562,96.0091038 638.716762,104.821091 648.167298,104.821091 C657.490125,104.821091 662.598523,94.8597142 662.598523,77.3634501 Z M711.183153,135.59919 C695.602538,135.59919 688.323071,127.681173 688.323071,115.421017 L688.323071,114.910177 L699.433837,114.910177 L699.433837,115.421017 C699.433837,122.700485 702.882006,127.425753 711.310863,127.425753 C720.63369,127.425753 724.209568,123.083615 724.209568,110.184909 L724.209568,97.2862033 C721.910789,104.437961 716.163841,109.929489 707.607274,109.929489 C694.070019,109.929489 686.024291,99.3295626 686.024291,79.2790995 L686.024291,71.1056623 C686.024291,50.5443593 694.070019,41.3492424 707.607274,41.3492424 C716.163841,41.3492424 721.910789,46.9684805 724.209568,53.9925281 L724.209568,42.8817619 L735.703465,42.8817619 L735.703465,108.01384 C735.703465,126.020944 729.062547,135.59919 711.183153,135.59919 Z M710.769805,101.500632 C720.603472,101.500632 725.32874,92.0500951 725.32874,76.0863506 C725.32874,59.2286363 720.603472,49.7780995 710.769805,49.7780995 C701.191559,49.7780995 698.509649,57.6961168 698.509649,73.9152813 L698.509649,75.8309306 C698.509649,91.9223852 701.191559,101.500632 710.769805,101.500632 Z M774.266282,113.249948 C757.153148,113.249948 749.23513,103.160861 749.23513,82.3441384 L749.23513,72.2550519 C749.23513,51.310619 757.025438,41.3492424 774.138572,41.3492424 C791.379416,41.3492424 798.658884,51.182909 798.658884,73.1490216 L798.658884,78.3851298 L761.112156,78.3851298 L761.112156,80.1730692 C761.112156,95.6259739 763.410936,105.076511 774.266282,105.076511 C782.056589,105.076511 786.781858,100.351242 786.781858,90.1344458 L786.781858,89.495896 L797.637204,89.495896 L797.637204,90.1344458 C797.637204,105.459641 788.952927,113.249948 774.266282,113.249948 Z M761.112156,70.2116926 L761.112156,70.9779523 L786.781858,70.9779523 L786.781858,70.0839826 C786.781858,56.8021471 784.610788,49.3949696 774.266282,49.3949696 C763.538646,49.3949696 761.112156,57.4406969 761.112156,70.2116926 Z" id="jeKnowledge" fill="#FFFFFF"></path>
            <path d="M247,172.919028 L247,133 L251.459919,133 L266.601619,168.183806 L266.601619,133 L269.960324,133 L269.960324,172.919028 L265.500405,172.919028 L250.358704,137.735223 L250.358704,172.919028 L247,172.919028 Z M284.493952,173.634818 C278.98788,173.634818 277.336058,170.05587 277.336058,162.897976 L277.336058,143.296356 L280.694762,143.296356 L280.694762,161.961943 C280.694762,167.688259 281.465612,170.936842 285.319863,170.936842 C289.229175,170.936842 291.87209,166.97247 291.87209,159.704453 L291.87209,143.296356 L295.230795,143.296356 L295.230795,172.919028 L291.982212,172.919028 L291.982212,167.74332 C291.046179,170.881781 288.403264,173.634818 284.493952,173.634818 Z M302.551468,172.919028 L302.551468,143.296356 L305.910172,143.296356 L305.910172,149.353036 C306.736083,146.104453 308.883451,143.296356 312.957945,143.296356 L314.05916,143.296356 L314.05916,146.6 L312.462399,146.6 C308.277783,146.6 305.910172,149.408097 305.910172,156.841296 L305.910172,172.919028 L302.551468,172.919028 Z M324.132869,172.919028 C319.177404,172.919028 318.076189,171.212146 318.076189,166.146559 L318.076189,145.82915 L314.001695,145.82915 L314.001695,143.296356 L318.076189,143.296356 L318.076189,136.083401 L321.434894,136.083401 L321.434894,143.296356 L326.555542,143.296356 L326.555542,145.82915 L321.434894,145.82915 L321.434894,165.651012 C321.434894,169.670445 321.87538,170.386235 325.234084,170.386235 L326.555542,170.386235 L326.555542,172.919028 L324.132869,172.919028 Z M337.730466,173.634818 C332.224393,173.634818 330.572571,170.05587 330.572571,162.897976 L330.572571,143.296356 L333.931275,143.296356 L333.931275,161.961943 C333.931275,167.688259 334.702126,170.936842 338.556377,170.936842 C342.465688,170.936842 345.108603,166.97247 345.108603,159.704453 L345.108603,143.296356 L348.467308,143.296356 L348.467308,172.919028 L345.218725,172.919028 L345.218725,167.74332 C344.282692,170.881781 341.639777,173.634818 337.730466,173.634818 Z M355.787981,172.919028 L355.787981,143.296356 L359.146685,143.296356 L359.146685,149.353036 C359.972596,146.104453 362.119965,143.296356 366.194459,143.296356 L367.295673,143.296356 L367.295673,146.6 L365.698912,146.6 C361.514297,146.6 359.146685,149.408097 359.146685,156.841296 L359.146685,172.919028 L355.787981,172.919028 Z M370.707034,172.919028 L370.707034,143.296356 L374.065739,143.296356 L374.065739,172.919028 L370.707034,172.919028 Z M370.707034,138.616194 L370.707034,133 L374.065739,133 L374.065739,138.616194 L370.707034,138.616194 Z M381.386412,172.919028 L381.386412,143.296356 L384.745116,143.296356 L384.745116,148.637247 C385.73621,145.498785 388.434185,142.745749 392.398558,142.745749 C397.904631,142.745749 399.611513,146.159514 399.611513,153.37247 L399.611513,172.919028 L396.252809,172.919028 L396.252809,154.418623 C396.252809,148.582186 395.426898,145.443725 391.462525,145.443725 C387.498153,145.443725 384.745116,149.408097 384.745116,156.676113 L384.745116,172.919028 L381.386412,172.919028 Z M415.136235,183.270445 C408.198583,183.270445 406.106275,179.140891 406.106275,174.791093 L406.106275,174.515789 L409.409919,174.515789 L409.409919,174.791093 C409.409919,178.259919 410.841498,180.682591 415.136235,180.682591 C419.651215,180.682591 421.413158,178.37004 421.413158,172.808907 L421.413158,166.421862 C420.477126,169.780567 417.724089,172.31336 413.869838,172.31336 C408.198583,172.31336 405.005061,167.523077 405.005061,158.878543 L405.005061,155.354656 C405.005061,146.6 408.198583,142.745749 413.869838,142.745749 C417.724089,142.745749 420.477126,145.333603 421.413158,148.637247 L421.413158,143.296356 L424.826923,143.296356 L424.826923,172.038057 C424.826923,178.975709 422.404251,183.270445 415.136235,183.270445 Z M414.475506,169.670445 C418.770243,169.670445 421.57834,166.036437 421.57834,157.612146 C421.57834,149.022672 418.770243,145.388664 414.475506,145.388664 C409.960526,145.388664 408.473887,149.022672 408.473887,156.731174 L408.473887,157.391903 C408.473887,165.100405 409.960526,169.670445 414.475506,169.670445 Z M443.487702,172.919028 L443.487702,133 L462.92414,133 L462.92414,135.973279 L447.011589,135.973279 L447.011589,150.729555 L461.602682,150.729555 L461.602682,153.702834 L447.011589,153.702834 L447.011589,169.945749 L462.92414,169.945749 L462.92414,172.919028 L443.487702,172.919028 Z M464.353315,172.919028 L472.557363,157.667206 L464.958983,143.296356 L468.482869,143.296356 L474.319307,154.363563 L480.265865,143.296356 L483.459388,143.296356 L475.916068,157.391903 L484.175177,172.919028 L480.651291,172.919028 L474.154125,160.695547 L467.601898,172.919028 L464.353315,172.919028 Z M496.616498,173.634818 C489.733907,173.634818 486.760628,169.22996 486.760628,160.2 L486.760628,156.180567 C486.760628,147.205668 489.733907,142.745749 496.616498,142.745749 C502.06751,142.745749 505.646458,146.324696 505.646458,152.65668 L505.646458,152.931984 L502.397875,152.931984 L502.397875,152.65668 C502.397875,148.1417 500.58087,145.333603 496.616498,145.333603 C491.220547,145.333603 490.229453,149.903644 490.229453,157.006478 L490.229453,159.42915 C490.229453,166.476923 491.220547,170.991903 496.616498,170.991903 C500.58087,170.991903 502.397875,168.293927 502.397875,163.723887 L502.397875,163.448583 L505.646458,163.448583 L505.646458,163.723887 C505.646458,170.05587 502.06751,173.634818 496.616498,173.634818 Z M520.840815,173.634818 C513.903163,173.634818 510.65458,169.174899 510.65458,160.255061 L510.65458,156.125506 C510.65458,147.205668 513.737981,142.745749 520.620572,142.745749 C527.448102,142.745749 530.31126,146.985425 530.31126,155.905263 L530.31126,158.217814 L514.123406,158.217814 L514.123406,159.42915 C514.123406,166.476923 515.499924,170.991903 520.840815,170.991903 C524.805187,170.991903 526.897495,168.404049 526.897495,163.94413 L526.897495,163.668826 L530.146078,163.668826 L530.146078,163.94413 C530.146078,170.276113 526.622191,173.634818 520.840815,173.634818 Z M514.123406,155.62996 L514.123406,155.795142 L526.842434,155.795142 L526.842434,155.519838 C526.842434,149.132794 525.79628,145.333603 520.675633,145.333603 C515.334742,145.333603 514.123406,149.573279 514.123406,155.62996 Z M536.035172,172.919028 L536.035172,133 L539.393877,133 L539.393877,172.919028 L536.035172,172.919028 Z M546.71455,172.919028 L546.71455,133 L550.073254,133 L550.073254,172.919028 L546.71455,172.919028 Z M566.258704,173.634818 C559.321053,173.634818 556.07247,169.174899 556.07247,160.255061 L556.07247,156.125506 C556.07247,147.205668 559.15587,142.745749 566.038462,142.745749 C572.865992,142.745749 575.72915,146.985425 575.72915,155.905263 L575.72915,158.217814 L559.541296,158.217814 L559.541296,159.42915 C559.541296,166.476923 560.917814,170.991903 566.258704,170.991903 C570.223077,170.991903 572.315385,168.404049 572.315385,163.94413 L572.315385,163.668826 L575.563968,163.668826 L575.563968,163.94413 C575.563968,170.276113 572.040081,173.634818 566.258704,173.634818 Z M559.541296,155.62996 L559.541296,155.795142 L572.260324,155.795142 L572.260324,155.519838 C572.260324,149.132794 571.21417,145.333603 566.093522,145.333603 C560.752632,145.333603 559.541296,149.573279 559.541296,155.62996 Z M581.453062,172.919028 L581.453062,143.296356 L584.811766,143.296356 L584.811766,148.637247 C585.802859,145.498785 588.500835,142.745749 592.465208,142.745749 C597.97128,142.745749 599.678163,146.159514 599.678163,153.37247 L599.678163,172.919028 L596.319459,172.919028 L596.319459,154.418623 C596.319459,148.582186 595.493548,145.443725 591.529175,145.443725 C587.564803,145.443725 584.811766,149.408097 584.811766,156.676113 L584.811766,172.919028 L581.453062,172.919028 Z M614.927581,173.634818 C608.04499,173.634818 605.071711,169.22996 605.071711,160.2 L605.071711,156.180567 C605.071711,147.205668 608.04499,142.745749 614.927581,142.745749 C620.378593,142.745749 623.957541,146.324696 623.957541,152.65668 L623.957541,152.931984 L620.708958,152.931984 L620.708958,152.65668 C620.708958,148.1417 618.891953,145.333603 614.927581,145.333603 C609.53163,145.333603 608.540536,149.903644 608.540536,157.006478 L608.540536,159.42915 C608.540536,166.476923 609.53163,170.991903 614.927581,170.991903 C618.891953,170.991903 620.708958,168.293927 620.708958,163.723887 L620.708958,163.448583 L623.957541,163.448583 L623.957541,163.723887 C623.957541,170.05587 620.378593,173.634818 614.927581,173.634818 Z M639.151898,173.634818 C632.214246,173.634818 628.965663,169.174899 628.965663,160.255061 L628.965663,156.125506 C628.965663,147.205668 632.049064,142.745749 638.931655,142.745749 C645.759185,142.745749 648.622343,146.985425 648.622343,155.905263 L648.622343,158.217814 L632.434489,158.217814 L632.434489,159.42915 C632.434489,166.476923 633.811007,170.991903 639.151898,170.991903 C643.11627,170.991903 645.208578,168.404049 645.208578,163.94413 L645.208578,163.668826 L648.457161,163.668826 L648.457161,163.94413 C648.457161,170.276113 644.933274,173.634818 639.151898,173.634818 Z M632.434489,155.62996 L632.434489,155.795142 L645.153517,155.795142 L645.153517,155.519838 C645.153517,149.132794 644.107363,145.333603 638.986716,145.333603 C633.645825,145.333603 632.434489,149.573279 632.434489,155.62996 Z" id="Nurturing-Excellence" fill="#FFFFFF"></path>
        </g>
    </g>
</svg>