<svg width="28" height="28" viewBox="0 0 28 28" fill="none" xmlns="http://www.w3.org/2000/svg">
<path fill-rule="evenodd" clip-rule="evenodd" d="M0.666672 6.00033C0.666672 4.58584 1.22857 3.22928 2.22877 2.22909C3.22896 1.2289 4.58552 0.666992 6.00001 0.666992H22C23.4145 0.666992 24.771 1.2289 25.7712 2.22909C26.7714 3.22928 27.3333 4.58584 27.3333 6.00033V22.0003C27.3333 23.4148 26.7714 24.7714 25.7712 25.7716C24.771 26.7718 23.4145 27.3337 22 27.3337H6.00001C4.58552 27.3337 3.22896 26.7718 2.22877 25.7716C1.22857 24.7714 0.666672 23.4148 0.666672 22.0003V6.00033ZM6.00001 3.33366C5.29276 3.33366 4.61448 3.61461 4.11439 4.11471C3.61429 4.6148 3.33334 5.29308 3.33334 6.00033V22.0003C3.33334 22.7076 3.61429 23.3858 4.11439 23.8859C4.61448 24.386 5.29276 24.667 6.00001 24.667H14V15.3337H12.6667C12.3131 15.3337 11.9739 15.1932 11.7239 14.9431C11.4738 14.6931 11.3333 14.3539 11.3333 14.0003C11.3333 13.6467 11.4738 13.3076 11.7239 13.0575C11.9739 12.8075 12.3131 12.667 12.6667 12.667H14V10.667C14 9.42932 14.4917 8.24233 15.3668 7.36716C16.242 6.49199 17.429 6.00033 18.6667 6.00033H19.4667C19.8203 6.00033 20.1594 6.1408 20.4095 6.39085C20.6595 6.6409 20.8 6.98004 20.8 7.33366C20.8 7.68728 20.6595 8.02642 20.4095 8.27647C20.1594 8.52652 19.8203 8.66699 19.4667 8.66699H18.6667C18.404 8.66699 18.144 8.71872 17.9013 8.81923C17.6587 8.91974 17.4382 9.06706 17.2525 9.25278C17.0667 9.4385 16.9194 9.65897 16.8189 9.90163C16.7184 10.1443 16.6667 10.4043 16.6667 10.667V12.667H19.4667C19.8203 12.667 20.1594 12.8075 20.4095 13.0575C20.6595 13.3076 20.8 13.6467 20.8 14.0003C20.8 14.3539 20.6595 14.6931 20.4095 14.9431C20.1594 15.1932 19.8203 15.3337 19.4667 15.3337H16.6667V24.667H22C22.7073 24.667 23.3855 24.386 23.8856 23.8859C24.3857 23.3858 24.6667 22.7076 24.6667 22.0003V6.00033C24.6667 5.29308 24.3857 4.6148 23.8856 4.11471C23.3855 3.61461 22.7073 3.33366 22 3.33366H6.00001Z" fill="white"/>
</svg>
