<svg width="25" height="25" viewBox="0 0 25 25" fill="none" xmlns="http://www.w3.org/2000/svg">
<path fill-rule="evenodd" clip-rule="evenodd" d="M0.416656 5.25033C0.416656 3.96845 0.925881 2.73907 1.83231 1.83264C2.73873 0.926217 3.96811 0.416992 5.24999 0.416992H19.75C21.0319 0.416992 22.2612 0.926217 23.1677 1.83264C24.0741 2.73907 24.5833 3.96845 24.5833 5.25033V19.7503C24.5833 21.0322 24.0741 22.2616 23.1677 23.168C22.2612 24.0744 21.0319 24.5837 19.75 24.5837H5.24999C3.96811 24.5837 2.73873 24.0744 1.83231 23.168C0.925881 22.2616 0.416656 21.0322 0.416656 19.7503V5.25033ZM5.24999 2.83366C4.60905 2.83366 3.99436 3.08827 3.54115 3.54148C3.08794 3.9947 2.83332 4.60939 2.83332 5.25033V19.7503C2.83332 20.3913 3.08794 21.006 3.54115 21.4592C3.99436 21.9124 4.60905 22.167 5.24999 22.167H19.75C20.3909 22.167 21.0056 21.9124 21.4588 21.4592C21.912 21.006 22.1667 20.3913 22.1667 19.7503V5.25033C22.1667 4.60939 21.912 3.9947 21.4588 3.54148C21.0056 3.08827 20.3909 2.83366 19.75 2.83366H5.24999ZM12.5 8.87533C11.5386 8.87533 10.6165 9.25724 9.93673 9.93706C9.25691 10.6169 8.87499 11.5389 8.87499 12.5003C8.87499 13.4617 9.25691 14.3838 9.93673 15.0636C10.6165 15.7434 11.5386 16.1253 12.5 16.1253C13.4614 16.1253 14.3834 15.7434 15.0633 15.0636C15.7431 14.3838 16.125 13.4617 16.125 12.5003C16.125 11.5389 15.7431 10.6169 15.0633 9.93706C14.3834 9.25724 13.4614 8.87533 12.5 8.87533ZM6.45832 12.5003C6.45832 10.898 7.09485 9.36125 8.22789 8.22822C9.36092 7.09519 10.8976 6.45866 12.5 6.45866C14.1023 6.45866 15.6391 7.09519 16.7721 8.22822C17.9051 9.36125 18.5417 10.898 18.5417 12.5003C18.5417 14.1027 17.9051 15.6394 16.7721 16.7724C15.6391 17.9055 14.1023 18.542 12.5 18.542C10.8976 18.542 9.36092 17.9055 8.22789 16.7724C7.09485 15.6394 6.45832 14.1027 6.45832 12.5003ZM19.1458 7.66699C19.6265 7.66699 20.0875 7.47603 20.4275 7.13612C20.7674 6.79621 20.9583 6.3352 20.9583 5.85449C20.9583 5.37379 20.7674 4.91277 20.4275 4.57286C20.0875 4.23295 19.6265 4.04199 19.1458 4.04199C18.6651 4.04199 18.2041 4.23295 17.8642 4.57286C17.5243 4.91277 17.3333 5.37379 17.3333 5.85449C17.3333 6.3352 17.5243 6.79621 17.8642 7.13612C18.2041 7.47603 18.6651 7.66699 19.1458 7.66699Z" fill="white"/>
</svg>
