<?xml version="1.0" encoding="UTF-8"?>
<svg width="494px" height="114px" viewBox="0 0 494 114" version="1.1" xmlns="http://www.w3.org/2000/svg" xmlns:xlink="http://www.w3.org/1999/xlink">
    <!-- Generator: Sketch 49 (51002) - http://www.bohemiancoding.com/sketch -->
    <title>Group 2</title>
    <desc>Created with Sketch.</desc>
    <defs></defs>
    <g id="Page-1" stroke="none" stroke-width="1" fill="none" fill-rule="evenodd">
        <g id="Group-2" transform="translate(0.000000, -1.000000)">
            <g id="icon-(1)-copy" fill-rule="nonzero">
                <g id="g10" transform="translate(47.239950, 49.934047) scale(-1, 1) rotate(-180.000000) translate(-47.239950, -49.934047) translate(0.000000, 0.746058)">
                    <g id="g12" transform="translate(0.130764, 0.294417)">
                        <path d="M58.4212807,27.5100297 C61.420362,29.2493819 64.2618723,31.0904717 66.9294659,33.0094186 C68.3737586,41.3080622 69.206074,51.7955352 67.8896035,62.7089319 C67.4548118,63.0059663 67.009886,63.3030007 66.5623449,63.5980723 C63.5740516,65.5706685 60.3765353,67.4421815 56.9962757,69.1884034 C54.439178,70.5100102 51.8637733,71.6880067 49.3246557,72.7603401 C47.7531947,73.4257233 46.1565614,74.0417098 44.4860463,74.6226934 C41.0613269,73.1257448 37.6029356,71.3821398 34.1589284,69.3850088 C31.0768117,67.5975684 28.1614196,65.7008664 25.4307321,63.7236904 C24.6226082,59.113769 24.1149154,54.1953637 23.9714015,49.0787173 C23.826253,43.9293579 24.0573791,38.9618831 24.612147,34.2907883 C32.0078542,29.3184064 40.2165889,25.1753001 48.0758558,22.2608955 C51.505152,23.7627511 54.971716,25.5070103 58.4212807,27.5100297" id="path14" fill="#7CCCED"></path>
                        <path d="M25.4307321,63.7236904 C26.3944657,69.2260234 27.7907025,74.2850948 29.5233307,78.7072434 C15.8502789,81.032159 4.931256,78.7657997 1.28224294,71.6889881 C-1.9511355,65.4201885 1.19515386,56.6805732 8.78331348,47.9478276 C12.922693,53.3425348 18.5907737,58.7764976 25.4307321,63.7236904" id="path16" fill="#7CCCED"></path>
                        <path d="M83.7990533,48.9462295 C80.5495581,44.7082554 76.3556171,40.4503263 71.3914739,36.4190986 C70.8713585,28.9160361 69.6398848,22.2762707 68.1426326,17.5237204 C79.3965431,16.5200844 88.1165666,19.0331 91.2993719,25.2060504 C94.5335022,31.4748499 91.3882917,40.2144653 83.7990533,48.9462295" id="path18" fill="#7CCCED"></path>
                        <path d="M63.6335494,80.4995908 C63.1922196,81.6792229 62.7139488,82.8532939 62.2000447,84.0188594 C61.9019019,84.5841407 56.8334741,96.6215575 47.6610058,96.8858788 C41.4202751,97.0651463 35.6231627,91.6619337 31.3200335,82.8195994 C37.975941,80.9258416 43.9871802,78.8403854 49.3037334,76.5825315 C54.2819339,78.4445577 59.1176011,79.7527521 63.6335494,80.4995908" id="path20" fill="#7CCCED"></path>
                        <path d="M28.8394329,16.3764742 C32.6466382,6.49353813 38.3698688,0.193988318 44.9237801,0.0101083289 C50.9664027,-0.159606915 56.5958098,4.89979161 60.8541522,13.2491731 C56.8975486,14.3138844 50.322715,16.5989228 42.9237387,20.1754393 C38.0292275,18.3700067 33.2805186,17.1020494 28.8394329,16.3764742" id="path22" fill="#7CCCED"></path>
                        <path d="M8.45486601,47.5153612 C1.60889239,38.4185195 -0.859285514,29.4718306 2.77145322,23.203031 C6.63027775,16.5423293 16.5410418,14.3675338 28.8394329,16.3764742 C27.2094548,20.6095414 25.9309059,25.5004677 25.0871487,30.8461053 C18.8330147,35.4694391 12.9629031,41.0136448 8.45486601,47.5153612" id="path24" fill="#7CCCED"></path>
                        <path d="M84.0040264,49.2128408 C90.9459811,58.3682388 93.4638495,67.3839522 89.8099655,73.6890633 C85.9867415,80.2905544 76.2241989,82.4882164 64.0837058,80.5751579 C66.5891516,75.595252 68.3793161,70.1671776 69.5813678,64.59582 C77.6197819,58.1317236 82.1219999,52.0755588 84.0040264,49.2128408" id="path26" fill="#7CCCED"></path>
                        <path d="M70.2642848,61.03566 C71.7066161,52.6284091 71.9230311,44.0729682 71.3914739,36.4190986 C76.3556171,40.4503263 80.5495581,44.7082554 83.7990533,48.9462295 C83.3969528,49.409119 82.9830834,49.8723356 82.5561377,50.3342437 C79.6482645,53.4315142 75.5288593,57.2075802 70.2642848,61.03566" id="path28" fill="#1690C3"></path>
                        <path d="M25.0871487,30.8461053 C25.9309059,25.5004677 27.2094548,20.6095414 28.8394329,16.3764742 C33.2805186,17.1020494 38.0292275,18.3700067 42.9237387,20.1754393 C37.1949507,22.9442709 30.9780846,26.4874201 25.0871487,30.8461053" id="path30" fill="#1690C3"></path>
                        <path d="M58.4212807,27.5100297 C54.971716,25.5070103 51.505152,23.7627511 48.0758558,22.2608955 C49.7836388,21.6390207 50.587186,21.3534358 51.9105216,20.9288206 C55.5568867,19.760638 59.1058323,18.8970138 62.4759576,18.2865885 C62.5831844,18.2672878 62.691065,18.2473328 62.7963304,18.2299949 C62.885904,18.2165826 62.9725354,18.2041516 63.062109,18.1887765 C63.2291605,18.6143731 63.3932698,19.0504379 63.5550908,19.4894469 C64.6325893,22.5562943 65.9274837,27.2571579 66.9294659,33.0094186 C64.2618723,31.0904717 61.420362,29.2493819 58.4212807,27.5100297" id="path32" fill="#1690C3"></path>
                        <path d="M34.1589284,69.3850088 C37.6029356,71.3821398 41.0613269,73.1257448 44.4860463,74.6226934 C39.8448911,76.237409 34.9193234,77.6761284 29.6017893,78.6948124 C29.5759634,78.7007008 29.5481759,78.7033178 29.5233307,78.7072434 C27.7907025,74.2850948 26.3944657,69.2260234 25.4307321,63.7236904 C28.1614196,65.7008664 31.0768117,67.5975684 34.1589284,69.3850088" id="path34" fill="#1690C3"></path>
                        <path d="M16.8006091,40.1300657 C17.0696569,39.9030372 17.3351086,39.6776443 17.60906,39.4555228 C17.6368474,39.4332779 17.6662694,39.4093974 17.6930761,39.3874797 C19.885995,37.6085447 22.2070629,35.9055039 24.612147,34.2907883 C24.0573791,38.9618831 23.826253,43.9293579 23.9714015,49.0787173 C24.1149154,54.1953637 24.6226082,59.113769 25.4307321,63.7236904 C18.5907737,58.7764976 12.922693,53.3425348 8.78331348,47.9478276 C11.0704154,45.3216249 13.7606639,42.6892067 16.8006091,40.1300657" id="path36" fill="#1690C3"></path>
                        <path d="M67.3783147,66.3037677 C66.6019011,71.0393072 65.3933112,75.8186821 63.6335494,80.4995908 C59.1176011,79.7527521 54.2819339,78.4445577 49.3037334,76.5825315 C54.4287169,74.4071145 58.908705,72.0704221 62.691065,69.5976436 C64.3612532,68.5043738 65.9186571,67.400963 67.3783147,66.3037677" id="path38" fill="#1690C3"></path>
                    </g>
                </g>
            </g>
            <path d="M114,84.9748083 L116.523549,84.9748083 C124.882804,84.9748083 127.564074,82.6089814 127.564074,73.5399781 L127.564074,28.746988 L120.466594,28.746988 L120.466594,73.5399781 C120.466594,78.9025192 120.072289,80.2431544 115.73494,80.2431544 L114,80.2431544 L114,84.9748083 Z M120.466594,22.6746988 L127.564074,22.6746988 L127.564074,14 L120.466594,14 L120.466594,22.6746988 Z M151.000969,72.1993428 C140.433609,72.1993428 135.544233,65.9693319 135.544233,53.1150055 L135.544233,46.8849945 C135.544233,33.9518072 140.354748,27.8006572 150.922108,27.8006572 C161.56833,27.8006572 166.063401,33.8729463 166.063401,47.4370208 L166.063401,50.6703176 L142.878297,50.6703176 L142.878297,51.7743702 C142.878297,61.3165389 144.297793,67.1522453 151.000969,67.1522453 C155.811484,67.1522453 158.729337,64.2343921 158.729337,57.9255203 L158.729337,57.5312158 L165.432514,57.5312158 L165.432514,57.9255203 C165.432514,67.388828 160.069972,72.1993428 151.000969,72.1993428 Z M142.878297,45.6232202 L142.878297,46.0963855 L158.729337,46.0963855 L158.729337,45.5443593 C158.729337,37.3428258 157.388702,32.7688938 151.000969,32.7688938 C144.376654,32.7688938 142.878297,37.7371303 142.878297,45.6232202 Z M202.906648,71.1741512 L210.635016,71.1741512 L192.57587,37.6582694 L208.821216,14 L201.32943,14 L182.087371,42.3899233 L182.087371,14 L174.674447,14 L174.674447,71.1741512 L182.087371,71.1741512 L182.087371,52.9572837 L188.15966,44.0460022 L202.906648,71.1741512 Z M215.145295,71.1741512 L222.242776,71.1741512 L222.242776,47.9890471 C222.242776,38.9989047 225.002908,33.0843373 230.52317,33.0843373 C235.570268,33.0843373 236.358877,37.5005476 236.358877,45.1500548 L236.358877,71.1741512 L243.456358,71.1741512 L243.456358,42.7842278 C243.456358,32.4534502 240.853948,27.8006572 233.046719,27.8006572 C227.605317,27.8006572 223.819994,31.1128149 222.242776,35.6078861 L222.242776,28.746988 L215.145295,28.746988 L215.145295,71.1741512 Z M266.025783,67.1522453 C272.728959,67.1522453 273.833012,61.237678 273.833012,51.3800657 L273.833012,48.6199343 C273.833012,38.762322 272.728959,32.7688938 266.025783,32.7688938 C259.322606,32.7688938 258.139693,38.762322 258.139693,48.6199343 L258.139693,51.3800657 C258.139693,61.237678 259.322606,67.1522453 266.025783,67.1522453 Z M266.025783,72.1993428 C255.537283,72.1993428 250.805629,66.1270537 250.805629,53.0361446 L250.805629,46.9638554 C250.805629,33.8729463 255.537283,27.8006572 266.025783,27.8006572 C276.35656,27.8006572 281.167075,33.8729463 281.167075,46.9638554 L281.167075,53.0361446 C281.167075,66.1270537 276.35656,72.1993428 266.025783,72.1993428 Z M292.222809,71.1741512 L299.872316,71.1741512 L306.33891,35.9233297 L312.805503,71.1741512 L320.376149,71.1741512 L327.394769,28.746988 L321.164758,28.746988 L316.117661,62.736035 L309.651067,28.746988 L302.947891,28.746988 L296.560158,62.736035 L291.513061,28.746988 L285.28305,28.746988 L292.222809,71.1741512 Z M333.955432,71.1741512 L341.052913,71.1741512 L341.052913,14 L333.955432,14 L333.955432,71.1741512 Z M364.489807,72.1993428 C353.922447,72.1993428 349.033071,65.9693319 349.033071,53.1150055 L349.033071,46.8849945 C349.033071,33.9518072 353.843586,27.8006572 364.410946,27.8006572 C375.057168,27.8006572 379.552239,33.8729463 379.552239,47.4370208 L379.552239,50.6703176 L356.367135,50.6703176 L356.367135,51.7743702 C356.367135,61.3165389 357.786631,67.1522453 364.489807,67.1522453 C369.300322,67.1522453 372.218175,64.2343921 372.218175,57.9255203 L372.218175,57.5312158 L378.921352,57.5312158 L378.921352,57.9255203 C378.921352,67.388828 373.558811,72.1993428 364.489807,72.1993428 Z M356.367135,45.6232202 L356.367135,46.0963855 L372.218175,46.0963855 L372.218175,45.5443593 C372.218175,37.3428258 370.87754,32.7688938 364.489807,32.7688938 C357.865492,32.7688938 356.367135,37.7371303 356.367135,45.6232202 Z M409.298005,35.5290252 L409.298005,14 L416.395486,14 L416.395486,71.1741512 L409.298005,71.1741512 L409.298005,64.4709748 C407.878509,68.8083242 403.856604,72.1993428 398.572923,72.1993428 C390.134807,72.1993428 385.876319,65.8116101 385.876319,53.1150055 L385.876319,46.8849945 C385.876319,34.1883899 390.134807,27.8006572 398.572923,27.8006572 C403.856604,27.8006572 407.878509,31.1916758 409.298005,35.5290252 Z M409.534588,50.0394304 C409.534588,39.1566265 406.380152,33.0054765 400.623307,33.0054765 C394.7876,33.0054765 393.210382,38.4468784 393.210382,48.856517 L393.210382,51.143483 C393.210382,61.5531216 394.7876,66.9945235 400.623307,66.9945235 C406.380152,66.9945235 409.534588,60.8433735 409.534588,50.0394304 Z M439.535597,86 C429.914567,86 425.419496,81.1106243 425.419496,73.5399781 L425.419496,73.2245345 L432.280394,73.2245345 L432.280394,73.5399781 C432.280394,78.0350493 434.409639,80.9529025 439.614458,80.9529025 C445.371303,80.9529025 447.579409,78.271632 447.579409,70.3066813 L447.579409,62.3417306 C446.159912,66.7579409 442.611172,70.1489595 437.327492,70.1489595 C428.968237,70.1489595 424,63.6035049 424,51.2223439 L424,46.1752464 C424,33.4786418 428.968237,27.8006572 437.327492,27.8006572 C442.611172,27.8006572 446.159912,31.2705367 447.579409,35.6078861 L447.579409,28.746988 L454.676889,28.746988 L454.676889,68.966046 C454.676889,80.0854326 450.576123,86 439.535597,86 Z M439.280355,64.9441402 C445.352644,64.9441402 448.270497,59.1084337 448.270497,49.2508215 C448.270497,38.8411829 445.352644,33.0054765 439.280355,33.0054765 C433.365787,33.0054765 431.709709,37.8948521 431.709709,47.9101862 L431.709709,49.0930997 C431.709709,59.0295728 433.365787,64.9441402 439.280355,64.9441402 Z M478.489429,72.1993428 C467.922069,72.1993428 463.032693,65.9693319 463.032693,53.1150055 L463.032693,46.8849945 C463.032693,33.9518072 467.843208,27.8006572 478.410568,27.8006572 C489.056789,27.8006572 493.551861,33.8729463 493.551861,47.4370208 L493.551861,50.6703176 L470.366757,50.6703176 L470.366757,51.7743702 C470.366757,61.3165389 471.786253,67.1522453 478.489429,67.1522453 C483.299944,67.1522453 486.217797,64.2343921 486.217797,57.9255203 L486.217797,57.5312158 L492.920973,57.5312158 L492.920973,57.9255203 C492.920973,67.388828 487.558432,72.1993428 478.489429,72.1993428 Z M470.366757,45.6232202 L470.366757,46.0963855 L486.217797,46.0963855 L486.217797,45.5443593 C486.217797,37.3428258 484.877162,32.7688938 478.489429,32.7688938 C471.865114,32.7688938 470.366757,37.7371303 470.366757,45.6232202 Z" id="jeKnowledge" fill="#1690C3"></path>
            <path d="M140,108.866375 L141.437021,108.866375 L141.437021,83.4556407 L140,83.4556407 L140,108.866375 Z M153.570834,108.025192 C158.407635,108.025192 159.283868,103.994524 159.283868,96.6692223 L159.283868,95.6177437 C159.283868,88.3274918 158.407635,84.2617744 153.570834,84.2617744 C148.769081,84.2617744 147.892849,88.3274918 147.892849,95.6177437 L147.892849,96.6692223 C147.892849,103.994524 148.769081,108.025192 153.570834,108.025192 Z M153.570834,109.322015 C148.453638,109.322015 146.455828,105.711939 146.455828,97.5104053 L146.455828,94.8116101 C146.455828,86.6100767 148.453638,83 153.570834,83 C158.723079,83 160.720888,86.6100767 160.720888,94.8116101 L160.720888,97.5104053 C160.720888,105.711939 158.723079,109.322015 153.570834,109.322015 Z M169.489969,108.866375 L170.506399,108.866375 L170.506399,107.674699 L169.770364,107.674699 C167.457111,107.674699 167.211766,107.184009 167.211766,104.485214 L167.211766,91.2015334 L170.506399,91.2015334 L170.506399,90.0098576 L167.211766,90.0098576 L167.211766,85.558598 L165.844843,85.558598 L165.844843,90.0098576 L163.181098,90.0098576 L163.181098,91.2015334 L165.844843,91.2015334 L165.844843,104.765608 C165.844843,107.814896 166.475731,108.866375 169.489969,108.866375 Z M174.018087,108.866375 L175.385009,108.866375 L175.385009,98.4917853 C175.385009,93.4446878 177.523016,90.9211391 180.116663,90.9211391 C182.815458,90.9211391 183.446345,92.9890471 183.446345,96.9145674 L183.446345,108.866375 L184.813267,108.866375 L184.813267,96.5290252 C184.813267,91.9726177 183.796838,89.694414 180.291909,89.694414 C177.698262,89.694414 175.910748,91.6571742 175.385009,93.6549836 L175.385009,83.4556407 L174.018087,83.4556407 L174.018087,108.866375 Z M195.061178,115 L195.727114,115 C198.88155,115 199.196994,114.369113 200.634015,109.286966 L205.996556,90.0098576 L204.594584,90.0098576 L200.108275,107.043812 L195.516818,90.0098576 L194.079798,90.0098576 L199.407289,108.866375 L198.951649,110.478642 C198.075417,113.668127 197.724924,113.808324 195.762163,113.808324 L195.061178,113.808324 L195.061178,115 Z M214.274947,109.322015 C210.104081,109.322015 208.176371,106.518072 208.176371,100.769989 L208.176371,98.2814896 C208.176371,92.4983571 209.963884,89.694414 214.13475,89.694414 C218.200467,89.694414 219.882833,92.3231106 219.882833,97.7907996 L219.882833,99.4030668 L209.578342,99.4030668 L209.578342,100.279299 C209.578342,105.010953 210.559722,108.09529 214.274947,108.09529 C217.07889,108.09529 218.445812,106.167579 218.445812,103.258488 L218.445812,103.083242 L219.812734,103.083242 L219.812734,103.258488 C219.812734,106.938664 217.674728,109.322015 214.274947,109.322015 Z M209.578342,98.1062432 L209.578342,98.1763417 L218.480861,98.1763417 L218.480861,98.0361446 C218.480861,93.6549836 217.744826,90.9211391 214.13475,90.9211391 C210.384476,90.9211391 209.578342,94.0054765 209.578342,98.1062432 Z M227.600435,109.322015 C224.761443,109.322015 222.833732,107.289157 222.833732,104.380066 L222.833732,104.064622 C222.833732,101.400876 223.955309,99.5082147 232.682582,97.0547645 L232.682582,95.1971522 C232.682582,91.7272727 231.000216,90.8159912 228.722012,90.8159912 C226.408759,90.8159912 224.516098,91.9726177 224.516098,95.0219058 L224.516098,95.4424973 L223.149176,95.4424973 L223.149176,95.0219058 C223.149176,91.4468784 225.427379,89.6243154 228.792111,89.6243154 C231.841399,89.6243154 234.049504,90.7458927 234.049504,95.3023001 C234.049504,96.9496166 234.014455,101.435926 234.014455,103.013143 C234.014455,106.483023 234.119603,107.569551 234.154652,108.866375 L232.822779,108.866375 L232.78773,105.711939 C231.981596,107.884995 230.404378,109.322015 227.600435,109.322015 Z M227.810731,108.09529 C230.33428,108.09529 232.717631,106.447974 232.717631,101.541073 L232.717631,98.2464403 C225.637675,100.2092 224.235704,101.541073 224.235704,104.16977 L224.235704,104.485214 C224.235704,106.62322 225.672724,108.09529 227.810731,108.09529 Z M238.822967,108.866375 L240.189889,108.866375 L240.189889,98.4917853 C240.189889,93.4096386 241.942353,91.3066813 244.606099,91.3066813 L245.482331,91.3066813 L245.482331,90.0098576 L244.781345,90.0098576 C242.152649,90.0098576 240.715628,91.762322 240.189889,93.7601314 L240.189889,90.0098576 L238.822967,90.0098576 L238.822967,108.866375 Z M259.550614,108.09529 C263.230789,108.09529 264.071972,104.940854 264.071972,99.9989047 L264.071972,99.0175246 C264.071972,94.075575 263.230789,90.9211391 259.550614,90.9211391 C255.835389,90.9211391 255.029256,94.075575 255.029256,99.0175246 L255.029256,99.9989047 C255.029256,104.940854 255.835389,108.09529 259.550614,108.09529 Z M259.550614,109.322015 C255.449847,109.322015 253.627284,106.518072 253.627284,100.769989 L253.627284,98.2814896 C253.627284,92.4983571 255.449847,89.694414 259.550614,89.694414 C263.651381,89.694414 265.473944,92.4983571 265.473944,98.2814896 L265.473944,100.769989 C265.473944,106.518072 263.651381,109.322015 259.550614,109.322015 Z M270.177307,108.866375 L271.54423,108.866375 L271.54423,91.2015334 L275.049158,91.2015334 L275.049158,90.0098576 L271.54423,90.0098576 L271.54423,87.8368018 C271.54423,85.1380066 271.789575,84.6473165 274.102828,84.6473165 L275.049158,84.6473165 L275.049158,83.4556407 L273.822433,83.4556407 C270.808195,83.4556407 270.177307,84.5071194 270.177307,87.5564074 L270.177307,90.0098576 L267.513561,90.0098576 L267.513561,91.2015334 L270.177307,91.2015334 L270.177307,108.866375 Z M285.22697,108.866375 L297.213827,108.866375 L297.213827,107.499452 L286.663991,107.499452 L286.663991,96.3187295 L296.337594,96.3187295 L296.337594,94.9868565 L286.663991,94.9868565 L286.663991,84.822563 L297.213827,84.822563 L297.213827,83.4556407 L285.22697,83.4556407 L285.22697,108.866375 Z M298.867902,108.866375 L300.234824,108.866375 L304.686084,100.384447 L309.137344,108.866375 L310.574364,108.866375 L305.422119,98.9824754 L310.118724,90.0098576 L308.786851,90.0098576 L304.721133,97.6856517 L300.725515,90.0098576 L299.288494,90.0098576 L304.020148,99.0876232 L298.867902,108.866375 Z M318.537312,109.322015 C321.937093,109.322015 323.969952,106.868565 323.969952,103.18839 L323.969952,103.013143 L322.603029,103.013143 L322.603029,103.18839 C322.603029,106.062432 321.341255,108.09529 318.537312,108.09529 C314.787038,108.09529 313.980904,105.010953 313.980904,100.279299 L313.980904,98.7721796 C313.980904,94.0054765 314.787038,90.9211391 318.537312,90.9211391 C321.341255,90.9211391 322.603029,92.9539978 322.603029,95.8630887 L322.603029,96.0032859 L323.969952,96.0032859 L323.969952,95.8630887 C323.969952,92.1478642 321.937093,89.694414 318.537312,89.694414 C314.366447,89.694414 312.578933,92.4983571 312.578933,98.2814896 L312.578933,100.769989 C312.578933,106.518072 314.366447,109.322015 318.537312,109.322015 Z M333.440018,109.322015 C329.269153,109.322015 327.341442,106.518072 327.341442,100.769989 L327.341442,98.2814896 C327.341442,92.4983571 329.128956,89.694414 333.299821,89.694414 C337.365539,89.694414 339.047905,92.3231106 339.047905,97.7907996 L339.047905,99.4030668 L328.743414,99.4030668 L328.743414,100.279299 C328.743414,105.010953 329.724794,108.09529 333.440018,108.09529 C336.243962,108.09529 337.610884,106.167579 337.610884,103.258488 L337.610884,103.083242 L338.977806,103.083242 L338.977806,103.258488 C338.977806,106.938664 336.839799,109.322015 333.440018,109.322015 Z M328.743414,98.1062432 L328.743414,98.1763417 L337.645933,98.1763417 L337.645933,98.0361446 C337.645933,93.6549836 336.909898,90.9211391 333.299821,90.9211391 C329.549547,90.9211391 328.743414,94.0054765 328.743414,98.1062432 Z M343.15543,108.866375 L344.522353,108.866375 L344.522353,83.4556407 L343.15543,83.4556407 L343.15543,108.866375 Z M349.611258,108.866375 L350.978181,108.866375 L350.978181,83.4556407 L349.611258,83.4556407 L349.611258,108.866375 Z M361.254381,109.322015 C357.083516,109.322015 355.155805,106.518072 355.155805,100.769989 L355.155805,98.2814896 C355.155805,92.4983571 356.943319,89.694414 361.114184,89.694414 C365.179901,89.694414 366.862267,92.3231106 366.862267,97.7907996 L366.862267,99.4030668 L356.557777,99.4030668 L356.557777,100.279299 C356.557777,105.010953 357.539157,108.09529 361.254381,108.09529 C364.058324,108.09529 365.425246,106.167579 365.425246,103.258488 L365.425246,103.083242 L366.792169,103.083242 L366.792169,103.258488 C366.792169,106.938664 364.654162,109.322015 361.254381,109.322015 Z M356.557777,98.1062432 L356.557777,98.1763417 L365.460296,98.1763417 L365.460296,98.0361446 C365.460296,93.6549836 364.724261,90.9211391 361.114184,90.9211391 C357.36391,90.9211391 356.557777,94.0054765 356.557777,98.1062432 Z M370.969793,108.866375 L372.336715,108.866375 L372.336715,98.4917853 C372.336715,93.4446878 374.474722,90.9211391 377.068369,90.9211391 C379.767164,90.9211391 380.398052,92.9890471 380.398052,96.9145674 L380.398052,108.866375 L381.764974,108.866375 L381.764974,96.5290252 C381.764974,91.9726177 380.748544,89.694414 377.243616,89.694414 C374.649968,89.694414 372.862455,91.6571742 372.336715,93.6549836 L372.336715,90.0098576 L370.969793,90.0098576 L370.969793,108.866375 Z M391.480386,109.322015 C394.880167,109.322015 396.913025,106.868565 396.913025,103.18839 L396.913025,103.013143 L395.546103,103.013143 L395.546103,103.18839 C395.546103,106.062432 394.284329,108.09529 391.480386,108.09529 C387.730112,108.09529 386.923978,105.010953 386.923978,100.279299 L386.923978,98.7721796 C386.923978,94.0054765 387.730112,90.9211391 391.480386,90.9211391 C394.284329,90.9211391 395.546103,92.9539978 395.546103,95.8630887 L395.546103,96.0032859 L396.913025,96.0032859 L396.913025,95.8630887 C396.913025,92.1478642 394.880167,89.694414 391.480386,89.694414 C387.30952,89.694414 385.522007,92.4983571 385.522007,98.2814896 L385.522007,100.769989 C385.522007,106.518072 387.30952,109.322015 391.480386,109.322015 Z M406.383092,109.322015 C402.212227,109.322015 400.284516,106.518072 400.284516,100.769989 L400.284516,98.2814896 C400.284516,92.4983571 402.07203,89.694414 406.242895,89.694414 C410.308612,89.694414 411.990978,92.3231106 411.990978,97.7907996 L411.990978,99.4030668 L401.686488,99.4030668 L401.686488,100.279299 C401.686488,105.010953 402.667868,108.09529 406.383092,108.09529 C409.187035,108.09529 410.553957,106.167579 410.553957,103.258488 L410.553957,103.083242 L411.92088,103.083242 L411.92088,103.258488 C411.92088,106.938664 409.782873,109.322015 406.383092,109.322015 Z M401.686488,98.1062432 L401.686488,98.1763417 L410.589007,98.1763417 L410.589007,98.0361446 C410.589007,93.6549836 409.852972,90.9211391 406.242895,90.9211391 C402.492621,90.9211391 401.686488,94.0054765 401.686488,98.1062432 Z" id="I0th-year-of-Excelle-Copy" fill="#1690C3"></path>
        </g>
    </g>
</svg>